<svg width="40" height="40" viewBox="0 0 40 40" fill="none" xmlns="http://www.w3.org/2000/svg">
<g clip-path="url(#clip0)">
<path d="M3.08002 17.4799L5.80002 20.3999L4.28002 24.5199L8.48002 26.1199L9.08002 30.3999L13.96 30.1199L16.08 34.0399L20.2 31.4399L23.88 33.7599L26.28 30.0799L30.4 30.6799L31.32 26.2799L35.6 24.6799L34.08 20.4799L37.28 17.1599L34 14.0799L35.68 9.6799L30.96 8.2799L30.76 4.0799L26.56 4.5999L23.68 0.399902C23.68 0.399902 20.88 2.7199 20.6 2.7999C20.32 2.8799 16.2 0.999902 16.2 0.999902L13.72 4.6799L9.32002 3.9599L8.80002 8.6799L4.32002 10.1999L6.44002 14.6799L3.08002 17.4799Z" fill="#95CE5A"/>
<path d="M0.800028 34.64L7.48003 33.44L8.68003 39.48C8.72003 39.76 8.92003 39.96 9.20003 40C9.24003 40 9.28003 40 9.32003 40C9.56003 40 9.76003 39.88 9.88003 39.72L14.56 32.72L15.56 34.36C15.64 34.52 15.8 34.64 16 34.68C16.04 34.68 16.12 34.68 16.16 34.68C16.28 34.68 16.4 34.64 16.52 34.56L20 32.24L23.52 34.56C23.84 34.76 24.24 34.68 24.44 34.36C24.44 34.36 24.44 34.36 24.44 34.32L25.44 32.68L30.12 39.68C30.24 39.88 30.44 39.96 30.68 39.96C30.72 39.96 30.76 39.96 30.8 39.96C31.08 39.92 31.28 39.72 31.32 39.44L32.52 33.36L39.28 34C39.64 34.04 39.96 33.76 40 33.4C40 33.24 39.96 33.08 39.88 32.96L35 25.64L35.84 25.36C36.2 25.24 36.4 24.88 36.28 24.52V24.48L34.8 20.64L37.84 17.8C38.12 17.56 38.12 17.12 37.88 16.84L37.84 16.8L34.8 14L36.28 10.16C36.4 9.79999 36.24 9.43999 35.92 9.27999H35.88L31.88 8.03999L31.52 3.91999C31.52 3.71999 31.4 3.55999 31.28 3.43999C31.12 3.31999 30.96 3.27999 30.76 3.31999L26.56 3.87999L24.44 0.319986C24.24 -1.42101e-05 23.84 -0.0800142 23.52 0.0799858C23.52 0.0799858 23.52 0.0799858 23.48 0.0799858L20 2.39999L16.48 0.0799858C16.16 -0.120014 15.76 -0.0400142 15.56 0.279986C15.56 0.279986 15.56 0.279986 15.56 0.319986L13.44 3.87999L9.24003 3.31999C8.88003 3.27999 8.52003 3.51999 8.48003 3.87999V3.91999L8.12003 8.03999L4.12003 9.27999C3.76003 9.39999 3.56003 9.75998 3.68003 10.12V10.16L5.20003 14L2.16003 16.84C1.88003 17.08 1.88003 17.52 2.12003 17.8L2.16003 17.84L5.20003 20.68L3.72003 24.52C3.60003 24.88 3.76003 25.24 4.08003 25.4H4.12003L5.00003 25.68L0.0800278 33.68C-0.119972 34 2.78e-05 34.4 0.280028 34.6C0.440028 34.64 0.640028 34.68 0.800028 34.64ZM38 32.56L32.04 32C31.72 31.96 31.4 32.2 31.32 32.52L30.32 37.6L26.2 31.44L26.6 30.8L30.76 31.36C31.12 31.4 31.48 31.16 31.52 30.8V30.76L31.88 26.64L33.72 26.08L38 32.56ZM3.60003 17.32L6.44003 14.68C6.64003 14.48 6.72003 14.2 6.60003 13.96L5.20003 10.36L8.96003 9.19999C9.20003 9.11999 9.40003 8.87999 9.44003 8.63999L9.76003 4.79999L13.68 5.35999C13.96 5.39999 14.2 5.27999 14.36 5.03999L16.36 1.67999L19.64 3.83999C19.88 3.99999 20.16 3.99999 20.36 3.83999L23.64 1.59999L25.64 4.95999C25.76 5.19999 26.04 5.31999 26.32 5.27999L30.24 4.71999L30.56 8.55999C30.6 8.83999 30.76 9.03999 31.04 9.11999L34.8 10.28L33.4 13.88C33.32 14.12 33.36 14.44 33.56 14.6L36.4 17.24L33.56 20C33.36 20.2 33.28 20.48 33.4 20.72L34.8 24.32L31.04 25.48C30.8 25.56 30.6 25.8 30.56 26.04L30.24 29.88L26.32 29.36C26.04 29.32 25.8 29.44 25.64 29.68L23.64 33.04L20.36 30.88C20.12 30.72 19.84 30.72 19.64 30.88L16.36 33.04L14.36 29.68C14.24 29.48 14.04 29.36 13.8 29.36C13.76 29.36 13.72 29.36 13.72 29.36L9.80003 29.92L9.48003 26.08C9.44003 25.8 9.28003 25.6 9.00003 25.52L5.20003 24.32L6.60003 20.72C6.68003 20.48 6.64003 20.16 6.44003 20L3.60003 17.32ZM6.32003 26.08L8.12003 26.64L8.48003 30.76C8.48003 30.96 8.60003 31.12 8.72003 31.24C8.88003 31.36 9.04003 31.4 9.24003 31.36L13.4 30.8L13.8 31.44L9.68003 37.64L8.68003 32.56C8.60003 32.2 8.28003 31.96 7.92003 32.04L2.00003 33.08L6.32003 26.08Z" fill="#333E50"/>
<path d="M28.16 23.1599H11.96C11.12 23.1599 10.44 22.4799 10.44 21.6399V13.1999C10.44 12.3599 11.12 11.6799 11.96 11.6799H28.16C29 11.6799 29.68 12.3599 29.68 13.1999V21.5999C29.72 22.4799 29.04 23.1599 28.16 23.1599Z" fill="white"/>
<path d="M29.56 14.5598H10.48V16.3598H29.56V14.5598Z" fill="#C3E2FC"/>
<path d="M18.04 20.24H13.4C13.08 20.24 12.8 20.52 12.8 20.84C12.8 21.16 13.08 21.44 13.4 21.44H18.04C18.36 21.44 18.64 21.16 18.64 20.84C18.64 20.52 18.36 20.24 18.04 20.24Z" fill="#333E50"/>
<path d="M28.32 11.1599H11.68C10.56 11.1599 9.67999 12.0799 9.67999 13.1599V22.0399C9.67999 23.1599 10.6 24.0399 11.68 24.0399H19.6V23.9999H28.28C29.4 23.9999 30.28 23.0799 30.28 21.9999L30.32 15.3599V13.1599C30.32 12.0399 29.44 11.1599 28.32 11.1599ZM29.12 16.9199V21.9999C29.12 22.4799 28.76 22.8399 28.28 22.8399H11.68C11.2 22.8399 10.84 22.4799 10.84 21.9999V16.9199H29.12ZM29.12 14.8399V15.7599H10.84V14.8399H29.12ZM29.16 13.1599V13.6799H10.84V13.1599C10.84 12.6799 11.2 12.3199 11.68 12.3199H28.32C28.8 12.3199 29.16 12.6799 29.16 13.1599Z" fill="#333E50"/>
<path d="M25.16 21H26.68C27.04 21 27.32 20.68 27.32 20.36V19.6C27.32 19.24 27 18.96 26.68 18.96H25.16C24.8 18.96 24.52 19.28 24.52 19.6V20.32C24.48 20.68 24.8 21 25.16 21Z" fill="#95CE5A"/>
<path d="M26.68 18.3599H25.16C24.52 18.3599 24 18.8799 24 19.5199V20.2399C24 20.8799 24.52 21.3999 25.16 21.3999H26.68C27.32 21.3999 27.84 20.8799 27.84 20.2399V19.5199C27.84 18.9199 27.28 18.3599 26.68 18.3599ZM26.88 19.5999V20.3199C26.88 20.4399 26.8 20.5199 26.68 20.5199H25.16C25.04 20.5199 24.96 20.4399 24.96 20.3199V19.5999C24.96 19.4799 25.04 19.3999 25.16 19.3999H26.68C26.8 19.3999 26.88 19.4799 26.88 19.5999Z" fill="#333E50"/>
<path d="M15.8 18.28H13.4C13.08 18.28 12.8 18.56 12.8 18.88C12.8 19.2 13.08 19.48 13.4 19.48H15.8C16.12 19.48 16.4 19.2 16.4 18.88C16.4 18.56 16.16 18.28 15.8 18.28Z" fill="#333E50"/>
</g>
<defs>
<clipPath id="clip0">
<rect width="40" height="40" fill="white"/>
</clipPath>
</defs>
</svg>
