<svg width="40" height="40" viewBox="0 0 40 40" fill="none" xmlns="http://www.w3.org/2000/svg">
<g clip-path="url(#clip0)">
<path d="M5.84 20.0798H37.84L39.12 22.4798L37.6 23.8398L8.8 23.7598L5.2 20.3198L5.84 20.0798Z" fill="#C3E2FC"/>
<path d="M11.36 21.5999C12.2437 21.5999 12.96 20.8836 12.96 19.9999C12.96 19.1162 12.2437 18.3999 11.36 18.3999C10.4763 18.3999 9.75999 19.1162 9.75999 19.9999C9.75999 20.8836 10.4763 21.5999 11.36 21.5999Z" fill="white"/>
<path d="M17.92 21.5999C18.8037 21.5999 19.52 20.8836 19.52 19.9999C19.52 19.1162 18.8037 18.3999 17.92 18.3999C17.0364 18.3999 16.32 19.1162 16.32 19.9999C16.32 20.8836 17.0364 21.5999 17.92 21.5999Z" fill="white"/>
<path d="M1.2 12.7998H4L8.64 15.9198L3.44 15.9998L1.2 12.7998Z" fill="#95CE5A"/>
<path d="M24.64 21.5999C25.5237 21.5999 26.24 20.8836 26.24 19.9999C26.24 19.1162 25.5237 18.3999 24.64 18.3999C23.7564 18.3999 23.04 19.1162 23.04 19.9999C23.04 20.8836 23.7564 21.5999 24.64 21.5999Z" fill="white"/>
<path d="M1.28 37.52L1.2 39.28L16.48 39.2L15.76 36.32L12.24 36L9.36 33.28L5.04 34.48L4.4 36L2.08 35.84L1.28 37.52Z" fill="#C3E2FC"/>
<path d="M23.84 5.19988L23.76 6.95988L39.04 6.87988L38.32 3.91988L34.72 3.67988L31.92 0.879883L27.52 2.07988L26.96 3.67988L24.64 3.51988L23.84 5.19988Z" fill="#C3E2FC"/>
<path d="M0.32 12.08C0 12.24 -0.08 12.64 0.08 12.96L5.52 22.16C6.4 23.68 8 24.64 9.76 24.64H21.84L14.8 32.88C14.72 33.04 14.64 33.12 14.64 33.28C14.64 33.68 14.96 33.92 15.28 33.92H20C20.16 33.92 20.32 33.84 20.48 33.76L30.32 24.64H37.44C38.16 24.64 38.88 24.32 39.36 23.68C39.84 23.12 39.92 22.32 39.76 21.6C38.72 17.84 35.28 15.28 31.44 15.28H29.04L19.12 6.16C18.96 6.08 18.8 6 18.64 6H14C13.84 6 13.68 6.08 13.6 6.16C13.36 6.4 13.28 6.8 13.52 7.12L20.56 15.36H9.52L4.32 12.16C4.24 12 4.16 12 4 12H0.64C0.56 12 0.4 12 0.32 12.08ZM26.96 15.36H22.32L15.44 7.36H18.4L26.96 15.36ZM31.36 16.64C33.36 16.64 35.36 17.52 36.72 18.96C36.72 19.04 36.64 19.12 36.64 19.2C36.56 19.28 36.56 19.36 36.48 19.36L36.4 19.44C36.4 19.52 36.32 19.52 36.24 19.52L36.16 19.6C36.08 19.6 36.08 19.68 36 19.68C36 19.68 35.92 19.68 35.92 19.76C35.84 19.76 35.84 19.84 35.76 19.84H35.68C35.6 19.84 35.6 19.84 35.52 19.92H35.44C35.36 19.92 35.28 19.92 35.2 19.92H32.8C31.84 19.92 31.12 19.2 31.12 18.24V16.56H31.36V16.64ZM23.68 24.64H28.32L19.76 32.64H16.8L23.68 24.64ZM3.84 16.64H29.84V18.32C29.84 20 31.2 21.28 32.88 21.36H35.2C35.36 21.36 35.52 21.36 35.68 21.28H35.76C35.92 21.28 36 21.2 36.16 21.2C36.16 21.2 36.16 21.2 36.24 21.2C36.4 21.12 36.48 21.12 36.64 21.04C36.64 21.04 36.72 21.04 36.72 20.96C36.8 20.88 36.96 20.8 37.04 20.8C37.04 20.8 37.12 20.8 37.12 20.72C37.2 20.64 37.36 20.56 37.44 20.4L37.52 20.32C37.52 20.24 37.6 20.24 37.6 20.16C38 20.72 38.24 21.36 38.4 22.08C38.48 22.4 38.4 22.72 38.24 22.96C38 23.2 37.68 23.36 37.36 23.36H9.76C8.48 23.36 7.28 22.64 6.64 21.6L3.84 16.64ZM1.84 13.36H3.84L7.04 15.36H3.04L1.84 13.36Z" fill="#333E50"/>
<path d="M22 20C22 21.12 22.88 22 24 22H25.36C26.48 22 27.36 21.12 27.36 20C27.36 18.88 26.48 18 25.36 18H24C22.88 18 22 18.88 22 20ZM23.36 20C23.36 19.6 23.68 19.36 24 19.36H25.36C25.76 19.36 26 19.68 26 20C26 20.4 25.68 20.64 25.36 20.64H24C23.6 20.64 23.36 20.4 23.36 20Z" fill="#333E50"/>
<path d="M15.36 20C15.36 21.12 16.24 22 17.36 22H18.72C19.84 22 20.72 21.12 20.72 20C20.72 18.88 19.84 18 18.72 18H17.36C16.24 18 15.36 18.88 15.36 20ZM16.64 20C16.64 19.6 16.96 19.36 17.28 19.36H18.64C19.04 19.36 19.28 19.68 19.28 20C19.28 20.4 18.96 20.64 18.64 20.64H17.28C16.96 20.64 16.64 20.4 16.64 20Z" fill="#333E50"/>
<path d="M10.64 18C9.52001 18 8.64001 18.88 8.64001 20C8.64001 21.12 9.52001 22 10.64 22H12C13.12 22 14 21.12 14 20C14 18.88 13.12 18 12 18H10.64ZM10.64 19.36H12C12.4 19.36 12.64 19.68 12.64 20C12.64 20.4 12.32 20.64 12 20.64H10.64C10.24 20.64 10 20.32 10 20C10 19.6 10.32 19.36 10.64 19.36Z" fill="#333E50"/>
<path d="M39.84 6.87992C39.92 6.55992 40 6.31992 40 5.99992C40 4.15992 38.4 2.63992 36.56 2.63992C36.16 2.63992 35.84 2.71992 35.44 2.79992C34.64 1.03992 32.88 -0.0800781 30.96 -0.0800781C29.12 -0.0800781 27.36 0.959922 26.56 2.63992C26.4 2.63992 26.24 2.63992 26.08 2.55992C24.24 2.55992 22.64 3.99992 22.64 5.91992C22.64 6.23992 22.72 6.47992 22.8 6.79992C22.88 7.11992 23.12 7.27992 23.44 7.27992H39.2C39.52 7.35992 39.84 7.11992 39.84 6.87992ZM38.64 5.99992H24C24 4.87992 24.96 3.99992 26.08 3.99992C26.32 3.99992 26.56 4.07992 26.72 4.07992C27.04 4.15992 27.44 3.99992 27.52 3.67992C28 2.23992 29.36 1.27992 30.88 1.35992C32.48 1.35992 33.92 2.39992 34.32 3.91992C34.32 3.99992 34.4 4.07992 34.4 4.07992C34.56 4.39992 35.04 4.47992 35.28 4.31992C35.76 4.07992 36.16 3.99992 36.56 3.99992C37.68 3.99992 38.64 4.87992 38.64 5.99992Z" fill="#333E50"/>
<path d="M3.44 35.3599C1.6 35.2799 0 36.7999 0 38.6399C0 38.9599 0.08 39.1999 0.16 39.5199C0.16 39.7599 0.48 39.9999 0.8 39.9999H16.64C16.96 39.9999 17.2 39.7599 17.28 39.5199C17.36 39.2799 17.36 38.9599 17.44 38.6399C17.44 36.7999 15.84 35.2799 14 35.2799C13.6 35.2799 13.28 35.3599 12.88 35.4399C12.4 34.3999 11.6 33.5999 10.64 33.1199C8.24 31.9199 5.28 32.8799 4 35.2799C3.76 35.3599 3.6 35.3599 3.44 35.3599ZM1.36 38.6399C1.36 37.5199 2.32 36.6399 3.44 36.6399C3.68 36.6399 3.92 36.7199 4.08 36.7199C4.4 36.7999 4.8 36.6399 4.88 36.3199C5.28 35.1999 6.16 34.3999 7.28 34.0799C9.2 33.5199 11.12 34.6399 11.68 36.5599C11.68 36.6399 11.76 36.7199 11.76 36.7199C11.92 37.0399 12.4 37.1199 12.64 36.9599C12.96 36.7199 13.36 36.6399 13.76 36.6399C14.88 36.6399 15.84 37.5199 15.84 38.6399H1.36Z" fill="#333E50"/>
</g>
<defs>
<clipPath id="clip0">
<rect width="40" height="40" fill="white"/>
</clipPath>
</defs>
</svg>
