<svg width="40" height="40" viewBox="0 0 40 40" fill="none" xmlns="http://www.w3.org/2000/svg">
<path d="M3.16001 10.0801H25.56L28.6 38.7201L0.599998 39.0401L3.16001 10.0801Z" fill="#C3E2FC"/>
<path d="M28.92 39.0399L26.64 9.79995C26.64 9.59995 26.6 9.47994 26.52 9.35994C26.4 9.23994 26.28 9.19995 26.08 9.19995H2.96001C2.64001 9.19995 2.4 9.43995 2.32 9.79995L0 39.1199C0 39.2799 0.0400098 39.4399 0.16001 39.5999C0.24001 39.7199 0.4 39.7999 0.6 39.7999H28.32C28.48 39.7999 28.64 39.7599 28.76 39.5999C28.84 39.4399 28.96 39.2799 28.92 39.0399ZM1.28 38.5199L3.48001 10.48H25.44V10.68L27.64 38.5199H1.28Z" fill="#333E50"/>
<path d="M22.52 14.88C22.64 15 22.8 15.12 22.96 15.12C23.32 15.12 23.6 14.84 23.6 14.48V6C23.6 2.72 20.92 0 17.6 0C14.28 0 11.6 2.68 11.6 6V14.48C11.6 14.84 11.88 15.12 12.24 15.12C12.6 15.12 12.88 14.84 12.88 14.48V6C12.88 3.36 15 1.2 17.68 1.2C20.32 1.2 22.48 3.32 22.48 6V14.48C22.4 14.64 22.44 14.76 22.52 14.88Z" fill="#333E50"/>
<path d="M18.7199 10.28C18.8399 10.4 18.9599 10.48 19.1199 10.48C19.4799 10.48 19.76 10.2 19.76 9.83999V6C19.76 2.72 17.08 0 13.76 0C10.48 0 7.75996 2.68 7.75996 6V9.83999C7.75996 10.2 8.03995 10.48 8.39995 10.48C8.75995 10.48 9.03994 10.2 9.03994 9.83999V6C9.03994 3.36 11.1599 1.2 13.8399 1.2C16.4799 1.2 18.6399 3.32 18.6399 6V9.8C18.5599 10 18.5999 10.16 18.7199 10.28Z" fill="#333E50"/>
<path d="M36.9599 38.76H11.6799C10.3599 38.76 9.27991 37.68 9.27991 36.36V23.2C9.27991 21.88 10.3599 20.8 11.6799 20.8H36.9599C38.2799 20.8 39.3599 21.88 39.3599 23.2V36.32C39.3199 37.72 38.2799 38.76 36.9599 38.76Z" fill="white"/>
<path d="M39.1199 25.3201H9.35989V28.1601H39.1199V25.3201Z" fill="#C3E2FC"/>
<path d="M13.88 36.4001C13.52 36.4001 13.24 36.1201 13.24 35.7601C13.24 35.4001 13.52 35.1201 13.88 35.1201H21.12C21.48 35.1201 21.76 35.4001 21.76 35.7601C21.76 36.1201 21.48 36.4001 21.12 36.4001H13.88Z" fill="#C3E2FC"/>
<path d="M13.88 35.7602C13.52 35.7602 13.24 35.4802 13.24 35.1202C13.24 34.7602 13.52 34.4802 13.88 34.4802H21.12C21.48 34.4802 21.76 34.7602 21.76 35.1202C21.76 35.4802 21.48 35.7602 21.12 35.7602H13.88Z" fill="#333E50"/>
<path d="M34.6 32.1201H32.24C31.4 32.1201 30.72 32.8401 30.72 33.6401V34.8001C30.72 35.6401 31.44 36.3201 32.24 36.3201H34.6C35.44 36.3201 36.12 35.6001 36.12 34.8001V33.6401C36.08 32.8401 35.4 32.1201 34.6 32.1201Z" fill="#C3E2FC"/>
<path d="M40 26.5601V23.1601C40 21.6401 38.76 20.3201 37.16 20.3201H22.04H11.24C9.72 20.3201 8.4 21.5601 8.4 23.1601V26.7201V33.6001V37.0001C8.4 38.5201 9.64 39.8401 11.24 39.8401H11.36L26.36 39.8001H37.12C38.64 39.8001 39.96 38.5601 39.96 36.9601V33.4001L40 26.5601ZM9.6 25.4801H38.72V27.5601H9.6V25.4801ZM11.24 21.5201H37.24C38.16 21.5201 38.84 22.2401 38.84 23.1601V24.3201H9.6V23.1601C9.6 22.2401 10.28 21.5201 11.24 21.5201ZM12.64 39.8401H23.56H12.64ZM37.16 38.6001H11.24C10.32 38.6001 9.64 37.8801 9.64 37.0001V28.7201H38.76V36.9601C38.76 37.8401 38.08 38.6001 37.16 38.6001Z" fill="#333E50"/>
<path d="M32.2399 35.3602H34.6C35.16 35.3602 35.6 34.8802 35.6 34.3602V33.2002C35.6 32.6402 35.12 32.2002 34.6 32.2002H32.2399C31.6799 32.2002 31.2399 32.6802 31.2399 33.2002V34.3202C31.1599 34.9202 31.6799 35.3602 32.2399 35.3602Z" fill="#95CE5A"/>
<path d="M34.6 35.7601H32.24C31.4 35.7601 30.72 35.0401 30.72 34.2401V33.0801C30.72 32.2401 31.44 31.5601 32.24 31.5601H34.6C35.44 31.5601 36.12 32.2801 36.12 33.0801V34.2401C36.08 35.0801 35.4 35.7601 34.6 35.7601ZM32.24 32.5601C31.88 32.5601 31.6 32.8401 31.6 33.2001V34.3201C31.6 34.6801 31.88 34.9601 32.24 34.9601H34.6C34.96 34.9601 35.24 34.6801 35.24 34.3201V33.1601C35.24 32.8001 34.96 32.5201 34.6 32.5201H32.24V32.5601Z" fill="#333E50"/>
<path d="M13.88 33.2402C13.52 33.2402 13.24 32.9602 13.24 32.6002C13.24 32.2402 13.52 31.9602 13.88 31.9602H17.64C18 31.9602 18.28 32.2402 18.28 32.6002C18.28 32.9602 18 33.2402 17.64 33.2402H13.88Z" fill="#C3E2FC"/>
<path d="M13.88 32.6802C13.52 32.6802 13.24 32.4002 13.24 32.0402C13.24 31.6801 13.52 31.4001 13.88 31.4001H17.64C18 31.4001 18.28 31.6801 18.28 32.0402C18.28 32.4002 18 32.6802 17.64 32.6802H13.88Z" fill="#333E50"/>
</svg>
