<svg width="40" height="40" viewBox="0 0 40 40" fill="none" xmlns="http://www.w3.org/2000/svg">
<g clip-path="url(#clip0)">
<path d="M24.44 36.2399L19.92 37.4399L15.56 36.2399V16.9199H24.44V36.2399Z" fill="#C3E2FC"/>
<path d="M2.75998 6.1599L19.36 0.399902L36.56 5.8399L35.56 7.0399L20.12 12.2399L2.75998 6.1599Z" fill="#95CE5A"/>
<path d="M11 9.92009L11.12 14.5601L12.2 16.2401L14.84 17.1201L24.24 17.2001L26.96 16.3601L28.72 14.5601L28.56 9.84009L11 9.92009Z" fill="#95CE5A"/>
<path d="M23.08 27.2H22.96C22.8 27.2 22.64 27.32 22.52 27.44C22.4 27.56 22.36 27.76 22.36 27.92C22.36 28.08 22.48 28.24 22.6 28.36C22.72 28.48 22.88 28.52 23 28.52H23.04H30.8C30.96 28.52 31.12 28.44 31.28 28.32C31.4 28.2 31.48 28.04 31.48 27.84C31.48 27.68 31.4 27.48 31.28 27.36C31.12 27.28 30.96 27.2 30.8 27.2H23.08Z" fill="#333E50"/>
<path d="M30.8 32.88C30.96 32.88 31.12 32.8 31.28 32.68C31.4 32.56 31.48 32.4 31.48 32.2C31.48 32.04 31.4 31.84 31.28 31.72C31.16 31.6 31 31.52 30.84 31.52H23.12C23.08 31.52 23.08 31.52 23.08 31.52C23.04 31.52 23.04 31.52 23 31.52C22.84 31.52 22.68 31.64 22.56 31.76C22.44 31.88 22.4 32.08 22.4 32.24C22.4 32.4 22.52 32.56 22.64 32.68C22.76 32.8 22.92 32.84 23.04 32.84H23.08H30.8V32.88Z" fill="#333E50"/>
<path d="M23 19.88C23.04 19.88 23.04 19.88 23.08 19.88H30.8C30.96 19.88 31.12 19.8 31.28 19.68C31.4 19.56 31.48 19.4 31.48 19.2C31.48 19.04 31.4 18.84 31.28 18.72C31.16 18.6 31 18.52 30.8 18.52H23.12C23.08 18.52 23.04 18.52 23 18.52H22.92C22.56 18.56 22.32 18.92 22.36 19.28C22.4 19.64 22.68 19.88 23 19.88Z" fill="#333E50"/>
<path d="M23 24.2001C23.04 24.2001 23.04 24.2001 23.08 24.2001H30.8C30.96 24.2001 31.12 24.1201 31.28 24.0001C31.4 23.8801 31.48 23.7201 31.48 23.5201C31.48 23.3601 31.4 23.1601 31.28 23.0401C31.16 22.9201 31 22.8401 30.84 22.8401H23.16C23.12 22.8401 23.04 22.8401 23.04 22.8401H22.96C22.6 22.8801 22.36 23.2401 22.4 23.6001C22.4 23.9601 22.68 24.2001 23 24.2001Z" fill="#333E50"/>
<path d="M16.64 31.5601H8.92001C8.88001 31.5601 8.88001 31.5601 8.88001 31.5601C8.84001 31.5601 8.84001 31.5601 8.80001 31.5601C8.64001 31.5601 8.48001 31.6801 8.36001 31.8001C8.24001 31.9201 8.20001 32.1201 8.20001 32.2801C8.20001 32.4401 8.32001 32.6001 8.44001 32.7201C8.56001 32.8401 8.72001 32.8801 8.84001 32.8801H8.88001H16.6C16.76 32.8801 16.92 32.8001 17.08 32.6801C17.2 32.5601 17.28 32.4001 17.28 32.2001C17.28 32.0401 17.2 31.8401 17.08 31.7201C16.96 31.6401 16.8 31.5601 16.64 31.5601Z" fill="#333E50"/>
<path d="M16.64 27.2H8.92001H8.80001C8.64001 27.2 8.48001 27.32 8.36001 27.44C8.24001 27.56 8.20001 27.76 8.20001 27.92C8.24001 28.24 8.52001 28.52 8.84001 28.52H8.88001H16.6C16.76 28.52 16.92 28.44 17.08 28.32C17.2 28.2 17.28 28.04 17.28 27.84C17.28 27.68 17.2 27.48 17.08 27.36C16.96 27.28 16.8 27.2 16.64 27.2Z" fill="#333E50"/>
<path d="M37.36 11.6V6.96005C37.52 6.80005 37.6 6.56005 37.6 6.36005C37.6 6.08005 37.48 5.80005 37.24 5.60005C37.04 5.44005 36.8 5.36005 36.64 5.28005L21.28 0.0400488C20.84 -0.119951 20.32 -0.199951 19.76 -0.199951C19.2 -0.199951 18.68 -0.119951 18.24 0.0400488L2.96 5.28005C2.76 5.36005 2.56 5.44005 2.36 5.60005C2.12 5.80005 2 6.08005 2 6.36005C2 6.64005 2.12 6.92005 2.36 7.12005C2.56 7.28005 2.8 7.36005 2.96 7.44005L10.44 10V13.52H6.24H6.16C5.84 13.56 5.56 13.84 5.6 14.2V36.5201C5.6 36.8801 5.92 37.2001 6.28 37.2001H16.68C17.96 37.2001 19.04 38.24 19.2 39.64C19.24 39.76 19.28 39.8801 19.36 39.96L19.4 40C19.52 40.16 19.68 40.2001 19.88 40.2001C19.96 40.2001 20.04 40.2001 20.12 40.16C20.4 40.0801 20.56 39.84 20.6 39.6C20.76 38.2001 21.84 37.16 23.12 37.16H33.52C33.88 37.16 34.2 36.84 34.2 36.48V14.16C34.2 13.8 33.88 13.48 33.52 13.48H29.28V9.88005L36 7.60005V11.6C35.56 11.84 35.28 12.28 35.28 12.8C35.28 13.56 35.92 14.2 36.68 14.2C37.44 14.2 38.04 13.56 38.04 12.8C38.04 12.28 37.76 11.84 37.36 11.6ZM36.72 12.8C36.72 12.84 36.72 12.84 36.68 12.84C36.64 12.84 36.64 12.84 36.64 12.8C36.64 12.76 36.68 12.76 36.68 12.76C36.72 12.72 36.72 12.76 36.72 12.8ZM20.52 17.68H23.6C25.04 17.68 26.4 17.4 27.44 16.88C28.44 16.3601 29.08 15.64 29.24 14.84H32.8V35.84H23.08C22.16 35.84 21.24 36.2401 20.52 36.9201V17.68ZM16.12 17.68H19.2V36.96C18.48 36.2401 17.6 35.84 16.64 35.84H6.92V14.84H10.48C10.64 15.64 11.24 16.3601 12.24 16.88C13.28 17.4 14.68 17.68 16.12 17.68ZM11.76 14.48V10.44L18.24 12.68C19.16 13 20.36 13 21.24 12.68L27.92 10.4V14.48C27.92 14.88 27.52 15.32 26.8 15.68C25.96 16.12 24.8 16.3601 23.56 16.3601H16.12C14.88 16.3601 13.72 16.12 12.88 15.68C12.16 15.32 11.76 14.88 11.76 14.48ZM18.72 11.4H18.68L3.88 6.36005L18.68 1.32005C18.92 1.24005 19.32 1.20005 19.76 1.20005C20.2 1.20005 20.6 1.24005 20.84 1.32005L35.64 6.36005L20.84 11.4C20.32 11.6 19.24 11.6 18.72 11.4Z" fill="#333E50"/>
<path d="M8.80001 18.5601C8.44001 18.6001 8.16001 18.9601 8.20001 19.3201C8.24001 19.6401 8.56001 19.9201 8.84001 19.9201C8.88001 19.9201 8.88001 19.9201 8.92001 19.9201H16.64C16.8 19.9201 16.96 19.8401 17.12 19.7201C17.24 19.6001 17.32 19.4401 17.32 19.2401C17.32 19.0801 17.24 18.8801 17.12 18.7601C17 18.6401 16.8 18.5601 16.68 18.5601H9.00001C8.92001 18.5601 8.84001 18.5601 8.80001 18.5601Z" fill="#333E50"/>
<path d="M16.64 22.8801H8.96001C8.92001 22.8801 8.84001 22.8801 8.80001 22.8801C8.44001 22.9201 8.16001 23.2801 8.20001 23.6401C8.24001 23.9601 8.56001 24.2401 8.84001 24.2401C8.88001 24.2401 8.88001 24.2401 8.92001 24.2401H16.64C16.8 24.2401 16.96 24.1601 17.12 24.0401C17.24 23.9201 17.32 23.7601 17.32 23.5601C17.32 23.4001 17.24 23.2001 17.12 23.0801C16.96 22.9601 16.8 22.8801 16.64 22.8801Z" fill="#333E50"/>
<path d="M36.64 13.32C36.9272 13.32 37.16 13.0872 37.16 12.8C37.16 12.5128 36.9272 12.28 36.64 12.28C36.3528 12.28 36.12 12.5128 36.12 12.8C36.12 13.0872 36.3528 13.32 36.64 13.32Z" fill="#95CE5A"/>
</g>
<defs>
<clipPath id="clip0">
<rect width="40" height="40" fill="white"/>
</clipPath>
</defs>
</svg>
