<svg width="24" height="24" fill="none" xmlns="http://www.w3.org/2000/svg"><path d="M10.2 8.098h4.2V3.812c0-.12.034-.236.098-.335a.589.589 0 01.91-.113l8.4 7.959a.612.612 0 01.192.448.622.622 0 01-.192.449l-8.4 7.96a.596.596 0 01-.648.112.603.603 0 01-.262-.226.621.621 0 01-.098-.335v-4.286h-3c-5.034 0-8.21 1.426-10.3 4.625a.605.605 0 01-.5.273.6.6 0 01-.482-.247A.621.621 0 010 19.73C0 14.364 2.671 8.098 10.2 8.098zm1.2 6.122H15a.59.59 0 01.424.18.612.612 0 01.176.433v3.494l6.918-6.556L15.6 5.216V8.71a.624.624 0 01-.176.433.598.598 0 01-.424.18h-4.8c-5.77 0-8.307 4.23-8.873 8.488 2.288-2.47 5.48-3.59 10.073-3.59z" fill="#ADB4BF"/></svg>