<svg width="40" height="40" fill="none" xmlns="http://www.w3.org/2000/svg"><g clip-path="url(#clip0)"><path d="M3.08 17.48L5.8 20.4l-1.52 4.12 4.2 1.6.6 4.28 4.88-.28 2.12 3.92 4.12-2.6 3.68 2.32 2.4-3.68 4.12.6.92-4.4 4.28-1.6-1.52-4.2 3.2-3.32L34 14.08l1.68-4.4-4.72-1.4-.2-4.2-4.2.52L23.68.4s-2.8 2.32-3.08 2.4c-.28.08-4.4-1.8-4.4-1.8l-2.48 3.68-4.4-.72-.52 4.72-4.48 1.52 2.12 4.48-3.36 2.8z" fill="#95CE5A"/><path d="M.8 34.64l6.68-1.2 1.2 6.04c.04.28.24.48.52.52h.12a.7.7 0 00.56-.28l4.68-7 1 1.64c.08.16.24.28.44.32h.16c.12 0 .24-.04.36-.12L20 32.24l3.52 2.32c.32.2.72.12.92-.2v-.04l1-1.64 4.68 7c.12.2.32.28.56.28h.12c.28-.04.48-.24.52-.52l1.2-6.08 6.76.64c.36.04.68-.24.72-.6 0-.16-.04-.32-.12-.44L35 25.64l.84-.28c.36-.12.56-.48.44-.84v-.04l-1.48-3.84 3.04-2.84c.28-.24.28-.68.04-.96l-.04-.04L34.8 14l1.48-3.84a.714.714 0 00-.36-.88h-.04l-4-1.24-.36-4.12c0-.2-.12-.36-.24-.48a.607.607 0 00-.52-.12l-4.2.56L24.44.32c-.2-.32-.6-.4-.92-.24h-.04L20 2.4 16.48.08a.654.654 0 00-.92.2v.04l-2.12 3.56-4.2-.56c-.36-.04-.72.2-.76.56v.04l-.36 4.12-4 1.24c-.36.12-.56.48-.44.84v.04L5.2 14l-3.04 2.84c-.28.24-.28.68-.04.96l.04.04 3.04 2.84-1.48 3.84c-.12.36.04.72.36.88h.04l.88.28-4.92 8c-.2.32-.08.72.2.92.16.04.36.08.52.04zM38 32.56L32.04 32c-.32-.04-.64.2-.72.52l-1 5.08-4.12-6.16.4-.64 4.16.56c.36.04.72-.2.76-.56v-.04l.36-4.12 1.84-.56L38 32.56zM3.6 17.32l2.84-2.64c.2-.2.28-.48.16-.72l-1.4-3.6L8.96 9.2c.24-.08.44-.32.48-.56l.32-3.84 3.92.56c.28.04.52-.08.68-.32l2-3.36 3.28 2.16c.24.16.52.16.72 0l3.28-2.24 2 3.36c.12.24.4.36.68.32l3.92-.56.32 3.84c.04.28.2.48.48.56l3.76 1.16-1.4 3.6c-.08.24-.04.56.16.72l2.84 2.64L33.56 20c-.2.2-.28.48-.16.72l1.4 3.6-3.76 1.16c-.24.08-.44.32-.48.56l-.32 3.84-3.92-.52c-.28-.04-.52.08-.68.32l-2 3.36-3.28-2.16c-.24-.16-.52-.16-.72 0l-3.28 2.16-2-3.36a.638.638 0 00-.56-.32h-.08l-3.92.56-.32-3.84a.64.64 0 00-.48-.56l-3.8-1.2 1.4-3.6c.08-.24.04-.56-.16-.72L3.6 17.32zm2.72 8.76l1.8.56.36 4.12c0 .2.12.36.24.48.16.12.32.16.52.12l4.16-.56.4.64-4.12 6.2-1-5.08c-.08-.36-.4-.6-.76-.52L2 33.08l4.32-7z" fill="#333E50"/><path d="M28.16 23.16h-16.2c-.84 0-1.52-.68-1.52-1.52V13.2c0-.84.68-1.52 1.52-1.52h16.2c.84 0 1.52.68 1.52 1.52v8.4c.04.88-.64 1.56-1.52 1.56z" fill="#fff"/><path d="M29.56 14.56H10.48v1.8h19.08v-1.8z" fill="#C3E2FC"/><path d="M18.04 20.24H13.4c-.32 0-.6.28-.6.6 0 .32.28.6.6.6h4.64c.32 0 .6-.28.6-.6 0-.32-.28-.6-.6-.6z" fill="#333E50"/><path d="M28.32 11.16H11.68c-1.12 0-2 .92-2 2v8.88c0 1.12.92 2 2 2h7.92V24h8.68c1.12 0 2-.92 2-2l.04-6.64v-2.2c0-1.12-.88-2-2-2zm.8 5.76V22c0 .48-.36.84-.84.84h-16.6a.82.82 0 01-.84-.84v-5.08h18.28zm0-2.08v.92H10.84v-.92h18.28zm.04-1.68v.52H10.84v-.52c0-.48.36-.84.84-.84h16.64c.48 0 .84.36.84.84z" fill="#333E50"/><path d="M25.16 21h1.52c.36 0 .64-.32.64-.64v-.76c0-.36-.32-.64-.64-.64h-1.52c-.36 0-.64.32-.64.64v.72c-.04.36.28.68.64.68z" fill="#95CE5A"/><path d="M26.68 18.36h-1.52c-.64 0-1.16.52-1.16 1.16v.72c0 .64.52 1.16 1.16 1.16h1.52c.64 0 1.16-.52 1.16-1.16v-.72c0-.6-.56-1.16-1.16-1.16zm.2 1.24v.72c0 .12-.08.2-.2.2h-1.52c-.12 0-.2-.08-.2-.2v-.72c0-.12.08-.2.2-.2h1.52c.12 0 .2.08.2.2zM15.8 18.28h-2.4c-.32 0-.6.28-.6.6 0 .32.28.6.6.6h2.4c.32 0 .6-.28.6-.6 0-.32-.24-.6-.6-.6z" fill="#333E50"/></g><defs><clipPath id="clip0"><path fill="#fff" d="M0 0h40v40H0z"/></clipPath></defs></svg>