<svg width="40" height="40" fill="none" xmlns="http://www.w3.org/2000/svg"><g clip-path="url(#clip0)"><path d="M6.16 15.24H33.4c1.4 0 2.6 1.2 2.6 2.6v18.28c0 1.4-1.2 2.6-2.6 2.6H6.16c-1.4 0-2.6-1.2-2.6-2.6v-18.2c0-1.48 1.16-2.68 2.6-2.68z" fill="#C3E2FC"/><path d="M6.16 15.24H33.4c1.4 0 2.6 1.2 2.6 2.6v18.28c0 1.4-1.2 2.6-2.6 2.6H6.16c-1.4 0-2.6-1.2-2.6-2.6v-18.2c0-1.48 1.16-2.68 2.6-2.68z" fill="#fff"/><path d="M36.08 34.12h-9.76c-2.44 0-4.4-1.96-4.4-4.4v-2.68h14.16v7.08z" fill="#C3E2FC"/><path d="M36 32.08h-9.6c-1.8 0-3.24-1.4-3.24-3.24V25.6c0-1.8 1.4-3.24 3.24-3.24h9.68c1.8 0 3.24 1.4 3.24 3.24v3.24c-.04 1.76-1.52 3.24-3.32 3.24z" fill="#fff"/><path d="M30.96 12.24H3.56v3.16h27.4v-3.16z" fill="#C3E2FC"/><path d="M11.28 14.84l5.36-7.32 5.24 3.16 4.96 4.64-15.96.32.4-.8z" fill="#95CE5A"/><path d="M17.08 6.72c-.16 0-.32 0-.48.08-.72.16-1.2.64-1.56 1.12l-4.56 6.68H6.92a.84.84 0 00-.72.4c-.16.24-.16.56 0 .8s.4.4.72.4h26.76c.88 0 1.56.72 1.56 1.56v1.56c0 .32.16.56.4.72.24.16.56.16.8 0s.4-.4.4-.72v-1.56c0-1.72-1.4-3.16-3.16-3.16h-1.56c0-1.72-1.4-3.16-3.16-3.16h-1.2a.84.84 0 00-.72.4c-.16.24-.16.56 0 .8s.4.4.72.4h1.2c.88 0 1.56.72 1.56 1.56h-2.84l-9.16-7.4c-.4-.32-.96-.48-1.44-.48zm.16 1.6c.08 0 .16.08.32.16l7.64 6.12H12.36l4.04-5.8c.16-.24.4-.4.56-.4.12-.08.2-.08.28-.08zM5.36 11.48c-1.72 0-3.16 1.4-3.16 3.16v22.04c0 1.72 1.4 3.16 3.16 3.16h28.32c1.72 0 3.16-1.4 3.16-3.16v-1.56a.84.84 0 00-.4-.72.727.727 0 00-.8 0c-.24.16-.4.4-.4.72v1.56c0 .88-.72 1.56-1.56 1.56H5.36c-.88 0-1.56-.72-1.56-1.56V14.6c0-.88.72-1.56 1.56-1.56h3.92c.32 0 .56-.16.72-.4.16-.24.16-.56 0-.8a.84.84 0 00-.72-.4H5.36v.04zm22.04 10.2c-1.96 0-3.76 1.04-4.8 2.76-1.04 1.72-.96 3.76 0 5.52.96 1.72 2.84 2.76 4.8 2.76h9.44c1.72 0 3.16-1.4 3.16-3.16v-4.72c0-1.72-1.4-3.16-3.16-3.16H27.4zm0 1.6h9.44c.88 0 1.56.72 1.56 1.56v4.72c0 .88-.72 1.56-1.56 1.56H27.4c-1.4 0-2.68-.8-3.4-1.96-.72-1.2-.72-2.76 0-3.92.72-1.2 2-1.96 3.4-1.96zm0 1.56c-1.24 0-2.36 1.12-2.36 2.36 0 1.24 1.12 2.36 2.36 2.36 1.24 0 2.36-1.12 2.36-2.36 0-1.24-1.08-2.36-2.36-2.36zm0 1.56c.48 0 .8.32.8.8 0 .48-.32.8-.8.8-.48 0-.8-.32-.8-.8 0-.48.32-.8.8-.8z" fill="#333E50"/><path d="M11.56 23.72l-.16 7.08-1.96.24 3.68 4.88 3.64-4.52-2.2-.44.08-7.36-3.08.12z" fill="#95CE5A"/><path d="M17.8 30.68a.74.74 0 00-.68-.44h-1.28c-.24 0-.44-.2-.44-.44v-6.28a.76.76 0 00-.76-.76h-2.96a.76.76 0 00-.76.76v6.24c0 .24-.2.44-.44.44H9.16a.74.74 0 00-.68.44c-.12.28-.12.56.08.8l4 5.2c.16.2.36.32.6.32s.48-.12.6-.32l4-5.2c.16-.2.2-.52.04-.76zm-3 .92h.2c.16 0 .32.08.4.24.08.16.08.32-.04.48l-1.88 2.44c-.16.24-.56.24-.72 0l-1.88-2.44c-.08-.12-.08-.32 0-.48a.44.44 0 01.4-.24h.24c.44 0 .76-.36.76-.76V24.6c0-.24.2-.44.44-.44h.84c.24 0 .44.2.44.44v6.24c.04.4.36.76.8.76zm0-11.08h-3.24c-.36 0-.68.32-.68.68 0 .36.32.68.68.68h3.24c.36 0 .68-.32.68-.68 0-.36-.32-.68-.68-.68zm0-2.04h-3.24c-.36 0-.68.32-.68.68 0 .36.32.68.68.68h3.24c.36 0 .68-.32.68-.68 0-.36-.32-.68-.68-.68z" fill="#333E50"/><path d="M28.72 7.76a3.64 3.64 0 100-7.28 3.64 3.64 0 000 7.28z" fill="#C3E2FC"/><path d="M28.64-.2c-2.36 0-4.32 1.92-4.32 4.32 0 2.4 1.92 4.32 4.32 4.32 2.36 0 4.32-1.92 4.32-4.32 0-2.4-1.92-4.32-4.32-4.32zm3 4.32c0 1.64-1.36 3-3 3s-3-1.36-3-3 1.36-3 3-3 3 1.36 3 3z" fill="#333E50"/></g><defs><clipPath id="clip0"><path fill="#fff" d="M0 0h40v40H0z"/></clipPath></defs></svg>