<svg width="26" height="26" fill="none" xmlns="http://www.w3.org/2000/svg"><g clip-path="url(#clip0)" fill="#ADB4BF"><path d="M10.065 13.537a.527.527 0 00.833.05l3.934-4.496a.527.527 0 00-.794-.694l-3.485 3.982-1.02-1.498a.527.527 0 10-.872.594l1.404 2.062z"/><path d="M.523 10.94l2.053.014v1.817l-1.581.002a.527.527 0 100 1.054h1.581v4.502c0 .291.236.527.528.527h2.8a2.276 2.276 0 002.257 2.008 2.276 2.276 0 002.257-2.008h8.854a2.275 2.275 0 002.21 1.745 2.274 2.274 0 002.21-1.745h1.78a.527.527 0 00.527-.527V13.13l.001-.02-.001-.018v-.134a.525.525 0 00-.037-.195l-1.285-3.227a.528.528 0 00-.49-.332h-.74V7.699a.527.527 0 00-.435-.519l-4.992-.889v-.564a.527.527 0 00-.527-.527H3.104a.527.527 0 00-.527.527V9.9L.53 9.885H.527a.528.528 0 00-.004 1.055zm7.638 8.87a1.22 1.22 0 01-1.186-1.5l.004-.017c.008-.031.017-.062.027-.092l.005-.013c.011-.032.024-.063.038-.095v-.001a1.23 1.23 0 01.999-.715h.006a1.137 1.137 0 01.213 0h.007a1.23 1.23 0 011.037.811l.004.013c.01.03.02.06.027.092l.005.017a1.322 1.322 0 01.033.28 1.22 1.22 0 01-1.219 1.22zm13.322-.264a1.22 1.22 0 01-1.218-1.218 1.22 1.22 0 011.218-1.218 1.22 1.22 0 011.218 1.218 1.22 1.22 0 01-1.218 1.218zm2.21-1.745l-.006-.023-.01-.038a2.613 2.613 0 00-.03-.102l-.022-.066-.012-.033a3.77 3.77 0 00-.031-.08l-.007-.017a2.038 2.038 0 00-.043-.094l-.011-.023a2.989 2.989 0 00-.036-.07l-.018-.031a2.916 2.916 0 00-.11-.178 2.383 2.383 0 00-.04-.056l-.02-.028a2.325 2.325 0 00-.13-.157l-.019-.02a3.304 3.304 0 00-.125-.126 1.455 1.455 0 00-.078-.069l-.03-.024-.053-.043-.028-.02a2.18 2.18 0 00-.073-.053l-.01-.006a3.714 3.714 0 00-.086-.056l-.026-.016a2.607 2.607 0 00-.063-.036l-.034-.018-.058-.03-.036-.017a1.986 1.986 0 00-.16-.068l-.032-.012a1.419 1.419 0 00-.092-.031l-.007-.003a2.557 2.557 0 00-.1-.028l-.032-.008a1.932 1.932 0 00-.11-.024l-.067-.012a.942.942 0 00-.108-.015l-.04-.004a2.252 2.252 0 00-.073-.006l-.035-.002a2.33 2.33 0 00-.219 0l-.035.002a2.19 2.19 0 00-.073.006l-.04.004a1.887 1.887 0 00-.285.052l-.031.007a2.282 2.282 0 00-.101.028l-.007.003a2.068 2.068 0 00-.189.07c-.012.004-.024.01-.035.015l-.06.026-.036.018-.059.03-.033.018a4.28 4.28 0 00-.063.036l-.026.015c-.03.018-.058.037-.087.056l-.009.007-.074.052-.027.02-.054.043-.03.025a2.122 2.122 0 00-.048.043l-.03.026a2.597 2.597 0 00-.124.125l-.02.02a2.654 2.654 0 00-.067.078l-.01.012a2.252 2.252 0 00-.053.069l-.02.027-.04.056-.021.032a2.82 2.82 0 00-.036.055l-.02.033a1.78 1.78 0 00-.033.058l-.018.032-.035.068-.012.024c-.015.03-.029.062-.043.094l-.007.019-.031.078-.012.033-.022.065-.012.038a5.078 5.078 0 00-.028.103l-.007.023h-1.25v-7.543h2.23v2.85c0 .292.236.528.528.528h4.166v4.164h-1.25zm.983-5.219h-3.37V10.26h2.386l.984 2.323zm-2.284-4.441v1.063H18.02V7.362l4.372.779zM3.632 6.255h13.333V17.8h-6.672a2.28 2.28 0 00-1.848-1.465l-.026-.004a2.508 2.508 0 00-.402-.01 1.802 1.802 0 00-.057.005l-.057.005A2.28 2.28 0 006.029 17.8H3.631v-3.976l3.153-.002a.527.527 0 10-.001-1.055l-3.152.002v-1.808l2.047.015h.004a.528.528 0 00.004-1.055L3.63 9.907V6.255z"/></g><defs><clipPath id="clip0"><path fill="#fff" d="M0 0h26v26H0z"/></clipPath></defs></svg>