<svg width="40" height="40" fill="none" xmlns="http://www.w3.org/2000/svg"><path d="M8.04 25.96H.96v9.68h7.08v-9.68z" fill="#95CE5A"/><path d="M4.6 29.68a.72.72 0 100-1.44.72.72 0 000 1.44z" fill="#fff"/><path d="M31.6 34.2c-.08-.8-.56-1.44-1.28-1.76-1.96-.84-5.24-.12-6.48.2-.4-1.28-2.4-2.2-3.28-2.52-1.92-.68-5.28-3.4-5.28-3.4-1.28-1.32-3.32-1.68-6.12-1 0-.2-.08-.36-.2-.48-.16-.16-.32-.2-.52-.2H.8c-.24 0-.4.08-.52.2a.7.7 0 00-.28.56v9.68c0 .4.28.72.68.76H8.4c.44 0 .76-.32.76-.76v-.32c2.48.92 5.4 2.4 6.4 2.92.16.08.28.12.32.16.92.52 1.88.88 2.92 1.04.56.12 1.12.16 1.64.16 1.36 0 2.52-.28 3.4-.56.56-.16 1.16-.32 1.76-.52 1.88-.52 3.8-1.04 5.04-1.96.68-.44 1.04-1.28.96-2.2zm-13-1.36c-1.12-.92-2.56-1.48-2.88-1.56-.36-.12-.8.12-.96.48-.12.36.08.8.48.96 0 0 1.4.44 2.36 1.28 1.8 1.48 3.96 1.64 5.72.44 1.2-.4 4.8-1.28 6.44-.56.24.12.32.36.36.56 0 .24-.08.56-.36.76-1 .72-2.76 1.2-4.44 1.68-.68.2-1.36.36-1.96.56-1.76.56-4.36.92-6.76-.52-.04 0-.16-.08-.36-.2-1.08-.56-4.36-2.28-7.04-3.16v-6.2c2.4-.68 4.12-.48 5.08.52l.08.08c1.36 1.12 3.96 3.04 5.72 3.64.88.36 2.2 1.08 2.32 1.52v.08c-1.16.8-2.56.68-3.8-.36zM7.64 26.6v8.12H1.52V26.6h6.12z" fill="#333E50"/><path d="M4.92 27.4c-.88-.16-1.72.44-1.88 1.32-.16.88.44 1.72 1.32 1.88.88.16 1.72-.44 1.88-1.32.12-.88-.48-1.72-1.32-1.88zm-.36 2.08c-.28-.04-.44-.32-.4-.6.04-.28.32-.48.6-.4.28.04.48.32.4.6-.12.24-.32.44-.6.4z" fill="#333E50"/><path fill-rule="evenodd" clip-rule="evenodd" d="M22.8 8.153a3.29 3.29 0 00-3.287 3.287 3.29 3.29 0 003.287 3.287 3.29 3.29 0 003.287-3.287A3.29 3.29 0 0022.8 8.153zm-1.873 3.287c0-.988.805-1.793 1.793-1.793.988 0 1.793.805 1.793 1.793 0 .988-.805 1.793-1.793 1.793-.95 0-1.793-.807-1.793-1.793zm10.83-1.878c-.296-.297-.767-.315-1.04.005l-9.795 9.795c-.297.297-.315.769.006 1.042a.907.907 0 00.552.203c.178 0 .325-.078.448-.143l.067-.035.024-.012 9.79-9.79.01-.015a.89.89 0 00-.05-1.039l-.006-.006-.005-.005zm-1.877 5.671a3.29 3.29 0 00-3.287 3.287 3.29 3.29 0 003.287 3.287 3.29 3.29 0 003.287-3.287 3.265 3.265 0 00-3.287-3.287zM28.087 18.6c0-.988.805-1.793 1.793-1.793.988 0 1.793.805 1.793 1.793v.006c.037.94-.801 1.787-1.793 1.787a1.796 1.796 0 01-1.793-1.793z" fill="#333E50"/><path d="M26.32 28.64c-7.52 0-13.68-6.12-13.68-13.68S18.8 1.32 26.32 1.32 40 7.44 40 15s-6.12 13.64-13.68 13.64zm0-25.72c-6.64 0-12.08 5.4-12.08 12.08 0 6.64 5.4 12.08 12.08 12.08S38.4 21.64 38.4 15c0-6.68-5.4-12.08-12.08-12.08z" fill="#333E50"/></svg>