<svg width="40" height="40" fill="none" xmlns="http://www.w3.org/2000/svg"><g clip-path="url(#clip0)"><path d="M5.84 20.08h32l1.28 2.4-1.52 1.36-28.8-.08-3.6-3.44.64-.24z" fill="#C3E2FC"/><path d="M11.36 21.6a1.6 1.6 0 100-3.2 1.6 1.6 0 000 3.2zm6.56 0a1.6 1.6 0 100-3.2 1.6 1.6 0 000 3.2z" fill="#fff"/><path d="M1.2 12.8H4l4.64 3.12-5.2.08-2.24-3.2z" fill="#95CE5A"/><path d="M24.64 21.6a1.6 1.6 0 100-3.2 1.6 1.6 0 000 3.2z" fill="#fff"/><path d="M1.28 37.52l-.08 1.76 15.28-.08-.72-2.88-3.52-.32-2.88-2.72-4.32 1.2L4.4 36l-2.32-.16-.8 1.68zM23.84 5.2l-.08 1.76 15.28-.08-.72-2.96-3.6-.24-2.8-2.8-4.4 1.2-.56 1.6-2.32-.16-.8 1.68z" fill="#C3E2FC"/><path d="M.32 12.08c-.32.16-.4.56-.24.88l5.44 9.2c.88 1.52 2.48 2.48 4.24 2.48h12.08l-7.04 8.24c-.08.16-.16.24-.16.4 0 .4.32.64.64.64H20c.16 0 .32-.08.48-.16l9.84-9.12h7.12c.72 0 1.44-.32 1.92-.96.48-.56.56-1.36.4-2.08-1.04-3.76-4.48-6.32-8.32-6.32h-2.4l-9.92-9.12c-.16-.08-.32-.16-.48-.16H14c-.16 0-.32.08-.4.16-.24.24-.32.64-.08.96l7.04 8.24H9.52l-5.2-3.2C4.24 12 4.16 12 4 12H.64c-.08 0-.24 0-.32.08zm26.64 3.28h-4.64l-6.88-8h2.96l8.56 8zm4.4 1.28c2 0 4 .88 5.36 2.32 0 .08-.08.16-.08.24-.08.08-.08.16-.16.16l-.08.08c0 .08-.08.08-.16.08l-.08.08c-.08 0-.08.08-.16.08 0 0-.08 0-.08.08-.08 0-.08.08-.16.08h-.08c-.08 0-.08 0-.16.08H32.8c-.96 0-1.68-.72-1.68-1.68v-1.68h.24v.08zm-7.68 8h4.64l-8.56 8H16.8l6.88-8zm-19.84-8h26v1.68c0 1.68 1.36 2.96 3.04 3.04h2.32c.16 0 .32 0 .48-.08h.08c.16 0 .24-.08.4-.08h.08c.16-.08.24-.08.4-.16 0 0 .08 0 .08-.08.08-.08.24-.16.32-.16 0 0 .08 0 .08-.08.08-.08.24-.16.32-.32l.08-.08c0-.08.08-.08.08-.16.4.56.64 1.2.8 1.92.08.32 0 .64-.16.88-.24.24-.56.4-.88.4H9.76c-1.28 0-2.48-.72-3.12-1.76l-2.8-4.96zm-2-3.28h2l3.2 2h-4l-1.2-2z" fill="#333E50"/><path d="M22 20c0 1.12.88 2 2 2h1.36c1.12 0 2-.88 2-2s-.88-2-2-2H24c-1.12 0-2 .88-2 2zm1.36 0c0-.4.32-.64.64-.64h1.36c.4 0 .64.32.64.64 0 .4-.32.64-.64.64H24c-.4 0-.64-.24-.64-.64zm-8 0c0 1.12.88 2 2 2h1.36c1.12 0 2-.88 2-2s-.88-2-2-2h-1.36c-1.12 0-2 .88-2 2zm1.28 0c0-.4.32-.64.64-.64h1.36c.4 0 .64.32.64.64 0 .4-.32.64-.64.64h-1.36c-.32 0-.64-.24-.64-.64zm-6-2c-1.12 0-2 .88-2 2s.88 2 2 2H12c1.12 0 2-.88 2-2s-.88-2-2-2h-1.36zm0 1.36H12c.4 0 .64.32.64.64 0 .4-.32.64-.64.64h-1.36c-.4 0-.64-.32-.64-.64 0-.4.32-.64.64-.64zm29.2-12.48c.08-.32.16-.56.16-.88 0-1.84-1.6-3.36-3.44-3.36-.4 0-.72.08-1.12.16a4.923 4.923 0 00-4.48-2.88c-1.84 0-3.6 1.04-4.4 2.72-.16 0-.32 0-.48-.08-1.84 0-3.44 1.44-3.44 3.36 0 .32.08.56.16.88.08.32.32.48.64.48H39.2c.32.08.64-.16.64-.4zM38.64 6H24c0-1.12.96-2 2.08-2 .24 0 .48.08.64.08.32.08.72-.08.8-.4.48-1.44 1.84-2.4 3.36-2.32 1.6 0 3.04 1.04 3.44 2.56 0 .08.08.16.08.16.16.32.64.4.88.24.48-.24.88-.32 1.28-.32 1.12 0 2.08.88 2.08 2zM3.44 35.36C1.6 35.28 0 36.8 0 38.64c0 .32.08.56.16.88 0 .24.32.48.64.48h15.84c.32 0 .56-.24.64-.48.08-.24.08-.56.16-.88 0-1.84-1.6-3.36-3.44-3.36-.4 0-.72.08-1.12.16a4.858 4.858 0 00-2.24-2.32c-2.4-1.2-5.36-.24-6.64 2.16-.24.08-.4.08-.56.08zm-2.08 3.28c0-1.12.96-2 2.08-2 .24 0 .48.08.64.08.32.08.72-.08.8-.4a3.54 3.54 0 012.4-2.24c1.92-.56 3.84.56 4.4 2.48 0 .08.08.16.08.16.16.32.64.4.88.24.32-.24.72-.32 1.12-.32 1.12 0 2.08.88 2.08 2H1.36z" fill="#333E50"/></g><defs><clipPath id="clip0"><path fill="#fff" d="M0 0h40v40H0z"/></clipPath></defs></svg>