<svg width="40" height="40" fill="none" xmlns="http://www.w3.org/2000/svg"><path d="M3.16 10.08h22.4l3.04 28.64-28 .32 2.56-28.96z" fill="#C3E2FC"/><path d="M28.92 39.04L26.64 9.8c0-.2-.04-.32-.12-.44-.12-.12-.24-.16-.44-.16H2.96c-.32 0-.56.24-.64.6L0 39.12c0 .16.04.32.16.48.08.12.24.2.44.2h27.72c.16 0 .32-.04.44-.2.08-.16.2-.32.16-.56zm-27.64-.52l2.2-28.04h21.96v.2l2.2 27.84H1.28z" fill="#333E50"/><path d="M22.52 14.88c.12.12.28.24.44.24.36 0 .64-.28.64-.64V6c0-3.28-2.68-6-6-6s-6 2.68-6 6v8.48c0 .36.28.64.64.64s.64-.28.64-.64V6c0-2.64 2.12-4.8 4.8-4.8 2.64 0 4.8 2.12 4.8 4.8v8.48c-.08.16-.04.28.04.4z" fill="#333E50"/><path d="M18.72 10.28c.12.12.24.2.4.2.36 0 .64-.28.64-.64V6c0-3.28-2.68-6-6-6-3.28 0-6 2.68-6 6v3.84c0 .36.28.64.64.64s.64-.28.64-.64V6c0-2.64 2.12-4.8 4.8-4.8 2.64 0 4.8 2.12 4.8 4.8v3.8c-.08.2-.04.36.08.48z" fill="#333E50"/><path d="M36.96 38.76H11.68c-1.32 0-2.4-1.08-2.4-2.4V23.2c0-1.32 1.08-2.4 2.4-2.4h25.28c1.32 0 2.4 1.08 2.4 2.4v13.12c-.04 1.4-1.08 2.44-2.4 2.44z" fill="#fff"/><path d="M39.12 25.32H9.36v2.84h29.76v-2.84zM13.88 36.4c-.36 0-.64-.28-.64-.64s.28-.64.64-.64h7.24c.36 0 .64.28.64.64s-.28.64-.64.64h-7.24z" fill="#C3E2FC"/><path d="M13.88 35.76c-.36 0-.64-.28-.64-.64s.28-.64.64-.64h7.24c.36 0 .64.28.64.64s-.28.64-.64.64h-7.24z" fill="#333E50"/><path d="M34.6 32.12h-2.36c-.84 0-1.52.72-1.52 1.52v1.16c0 .84.72 1.52 1.52 1.52h2.36c.84 0 1.52-.72 1.52-1.52v-1.16c-.04-.8-.72-1.52-1.52-1.52z" fill="#C3E2FC"/><path d="M40 26.56v-3.4c0-1.52-1.24-2.84-2.84-2.84H11.24c-1.52 0-2.84 1.24-2.84 2.84V37c0 1.52 1.24 2.84 2.84 2.84h.12l15-.04h10.76c1.52 0 2.84-1.24 2.84-2.84V33.4l.04-6.84zM9.6 25.48h29.12v2.08H9.6v-2.08zm1.64-3.96h26c.92 0 1.6.72 1.6 1.64v1.16H9.6v-1.16c0-.92.68-1.64 1.64-1.64zm1.4 18.32h10.92-10.92zm24.52-1.24H11.24c-.92 0-1.6-.72-1.6-1.6v-8.28h29.12v8.24c0 .88-.68 1.64-1.6 1.64z" fill="#333E50"/><path d="M32.24 35.36h2.36c.56 0 1-.48 1-1V33.2c0-.56-.48-1-1-1h-2.36c-.56 0-1 .48-1 1v1.12c-.08.6.44 1.04 1 1.04z" fill="#95CE5A"/><path d="M34.6 35.76h-2.36c-.84 0-1.52-.72-1.52-1.52v-1.16c0-.84.72-1.52 1.52-1.52h2.36c.84 0 1.52.72 1.52 1.52v1.16c-.04.84-.72 1.52-1.52 1.52zm-2.36-3.2c-.36 0-.64.28-.64.64v1.12c0 .36.28.64.64.64h2.36c.36 0 .64-.28.64-.64v-1.16c0-.36-.28-.64-.64-.64h-2.36v.04z" fill="#333E50"/><path d="M13.88 33.24c-.36 0-.64-.28-.64-.64s.28-.64.64-.64h3.76c.36 0 .64.28.64.64s-.28.64-.64.64h-3.76z" fill="#C3E2FC"/><path d="M13.88 32.68c-.36 0-.64-.28-.64-.64s.28-.64.64-.64h3.76c.36 0 .64.28.64.64s-.28.64-.64.64h-3.76z" fill="#333E50"/></svg>