<svg width="40" height="40" fill="none" xmlns="http://www.w3.org/2000/svg"><g clip-path="url(#clip0)"><path d="M24.44 36.24l-4.52 1.2-4.36-1.2V16.92h8.88v19.32z" fill="#C3E2FC"/><path d="M2.76 6.16L19.36.4l17.2 5.44-1 1.2-15.44 5.2L2.76 6.16z" fill="#95CE5A"/><path d="M11 9.92l.12 4.64 1.08 1.68 2.64.88 9.4.08 2.72-.84 1.76-1.8-.16-4.72L11 9.92z" fill="#95CE5A"/><path d="M23.08 27.2h-.12c-.16 0-.32.12-.44.24s-.16.32-.16.48c0 .16.12.32.24.44s.28.16.4.16h7.8c.16 0 .32-.08.48-.2.12-.12.2-.28.2-.48 0-.16-.08-.36-.2-.48-.16-.08-.32-.16-.48-.16h-7.72zm7.72 5.68c.16 0 .32-.08.48-.2.12-.12.2-.28.2-.48 0-.16-.08-.36-.2-.48a.642.642 0 00-.44-.2H23c-.16 0-.32.12-.44.24s-.16.32-.16.48c0 .16.12.32.24.44s.28.16.4.16h7.76v.04zm-7.8-13h7.8c.16 0 .32-.08.48-.2.12-.12.2-.28.2-.48 0-.16-.08-.36-.2-.48a.662.662 0 00-.48-.2h-7.88c-.36.04-.6.4-.56.76.04.36.32.6.64.6zm0 4.32h7.8c.16 0 .32-.08.48-.2.12-.12.2-.28.2-.48 0-.16-.08-.36-.2-.48a.642.642 0 00-.44-.2h-7.88c-.36.04-.6.4-.56.76 0 .36.28.6.6.6zm-6.36 7.36H8.8c-.16 0-.32.12-.44.24s-.16.32-.16.48c0 .16.12.32.24.44s.28.16.4.16h7.76c.16 0 .32-.08.48-.2.12-.12.2-.28.2-.48 0-.16-.08-.36-.2-.48-.12-.08-.28-.16-.44-.16zm0-4.36H8.8c-.16 0-.32.12-.44.24s-.16.32-.16.48c.04.32.32.6.64.6h7.76c.16 0 .32-.08.48-.2.12-.12.2-.28.2-.48 0-.16-.08-.36-.2-.48-.12-.08-.28-.16-.44-.16z" fill="#333E50"/><path d="M37.36 11.6V6.96c.16-.16.24-.4.24-.6 0-.28-.12-.56-.36-.76-.2-.16-.44-.24-.6-.32L21.28.04c-.44-.16-.96-.24-1.52-.24s-1.08.08-1.52.24L2.96 5.28c-.2.08-.4.16-.6.32a.985.985 0 000 1.52c.2.16.44.24.6.32L10.44 10v3.52H6.16c-.32.04-.6.32-.56.68v22.32c0 .36.32.68.68.68h10.4c1.28 0 2.36 1.04 2.52 2.44.04.12.08.24.16.32l.04.04c.12.16.28.2.48.2.08 0 .16 0 .24-.04.28-.08.44-.32.48-.56.16-1.4 1.24-2.44 2.52-2.44h10.4c.36 0 .68-.32.68-.68V14.16c0-.36-.32-.68-.68-.68h-4.24v-3.6L36 7.6v4c-.44.24-.72.68-.72 1.2 0 .76.64 1.4 1.4 1.4.76 0 1.36-.64 1.36-1.4 0-.52-.28-.96-.68-1.2zm-.64 1.2c0 .04 0 .04-.04.04s-.04 0-.04-.04.04-.04.04-.04c.04-.04.04 0 .04.04zm-16.2 4.88h3.08c1.44 0 2.8-.28 3.84-.8 1-.52 1.64-1.24 1.8-2.04h3.56v21h-9.72c-.92 0-1.84.4-2.56 1.08V17.68zm-4.4 0h3.08v19.28c-.72-.72-1.6-1.12-2.56-1.12H6.92v-21h3.56c.16.8.76 1.52 1.76 2.04 1.04.52 2.44.8 3.88.8zm-4.36-3.2v-4.04l6.48 2.24c.92.32 2.12.32 3 0l6.68-2.28v4.08c0 .4-.4.84-1.12 1.2-.84.44-2 .68-3.24.68h-7.44c-1.24 0-2.4-.24-3.24-.68-.72-.36-1.12-.8-1.12-1.2zm6.96-3.08h-.04L3.88 6.36l14.8-5.04c.24-.08.64-.12 1.08-.12.44 0 .84.04 1.08.12l14.8 5.04-14.8 5.04c-.52.2-1.6.2-2.12 0z" fill="#333E50"/><path d="M8.8 18.56c-.36.04-.64.4-.6.76.04.32.36.6.64.6h7.8c.16 0 .32-.08.48-.2.12-.12.2-.28.2-.48 0-.16-.08-.36-.2-.48a.73.73 0 00-.44-.2H8.8zm7.84 4.32H8.8c-.36.04-.64.4-.6.76.04.32.36.6.64.6h7.8c.16 0 .32-.08.48-.2.12-.12.2-.28.2-.48 0-.16-.08-.36-.2-.48-.16-.12-.32-.2-.48-.2z" fill="#333E50"/><path d="M36.64 13.32a.52.52 0 100-1.04.52.52 0 000 1.04z" fill="#95CE5A"/></g><defs><clipPath id="clip0"><path fill="#fff" d="M0 0h40v40H0z"/></clipPath></defs></svg>