<svg width="24" height="24" viewBox="0 0 24 24" fill="none" xmlns="http://www.w3.org/2000/svg">
<path d="M10.2 8.09782H14.4V3.81207C14.4 3.69291 14.4341 3.57634 14.4981 3.47666C14.5621 3.37699 14.6532 3.29854 14.7603 3.25093C14.8673 3.20332 14.9857 3.18863 15.1008 3.20866C15.2159 3.22868 15.3228 3.28255 15.4084 3.36366L23.8083 11.3229C23.8688 11.3802 23.917 11.4496 23.95 11.5268C23.983 11.6039 24 11.6872 24 11.7714C24 11.8556 23.983 11.9388 23.95 12.016C23.917 12.0932 23.8688 12.1626 23.8083 12.2199L15.4084 20.1791C15.3228 20.2602 15.2159 20.3141 15.1008 20.3341C14.9856 20.3541 14.8673 20.3394 14.7602 20.2918C14.6532 20.2442 14.562 20.1657 14.4981 20.066C14.4341 19.9663 14.4 19.8497 14.4 19.7306V15.4448H11.4C6.3662 15.4448 3.18926 16.8714 1.09923 20.0702C1.04444 20.154 0.970203 20.2228 0.883114 20.2704C0.796026 20.3179 0.698778 20.3428 0.600002 20.3428C0.541044 20.3429 0.482399 20.3341 0.426003 20.3165C0.30278 20.2784 0.194838 20.2009 0.118124 20.0954C0.0414124 19.9898 0 19.8619 3.8147e-06 19.7306C3.8147e-06 14.3644 2.67129 8.09782 10.2 8.09782ZM11.4 14.2203H15C15.0788 14.2203 15.1568 14.2361 15.2296 14.2668C15.3025 14.2976 15.3686 14.3427 15.4243 14.3995C15.4801 14.4564 15.5243 14.5239 15.5544 14.5982C15.5845 14.6725 15.6 14.7522 15.6 14.8326V18.3267L22.518 11.7713L15.6 5.21596V8.71007C15.6 8.79048 15.5845 8.87012 15.5544 8.94443C15.5243 9.01873 15.4801 9.08624 15.4243 9.1431C15.3686 9.19997 15.3025 9.24506 15.2296 9.27581C15.1568 9.30656 15.0788 9.32237 15 9.32232H10.2C4.42967 9.32232 1.89315 13.553 1.32657 17.8113C3.61463 15.3414 6.80684 14.2203 11.4 14.2203Z" fill="#ADB4BF"/>
</svg>
