<svg width="40" height="40" viewBox="0 0 40 40" fill="none" xmlns="http://www.w3.org/2000/svg">
<g clip-path="url(#clip0)">
<path d="M6.16 15.24H33.4C34.8 15.24 36 16.44 36 17.84V36.12C36 37.52 34.8 38.72 33.4 38.72H6.16C4.76 38.72 3.56 37.52 3.56 36.12V17.92C3.56 16.44 4.72 15.24 6.16 15.24Z" fill="#C3E2FC"/>
<path d="M6.16 15.24H33.4C34.8 15.24 36 16.44 36 17.84V36.12C36 37.52 34.8 38.72 33.4 38.72H6.16C4.76 38.72 3.56 37.52 3.56 36.12V17.92C3.56 16.44 4.72 15.24 6.16 15.24Z" fill="white"/>
<path d="M36.08 34.12H26.32C23.88 34.12 21.92 32.16 21.92 29.72V27.04H36.08V34.12Z" fill="#C3E2FC"/>
<path d="M36 32.0799H26.4C24.6 32.0799 23.16 30.6799 23.16 28.8399V25.5999C23.16 23.7999 24.56 22.3599 26.4 22.3599H36.08C37.88 22.3599 39.32 23.7599 39.32 25.5999V28.8399C39.28 30.5999 37.8 32.0799 36 32.0799Z" fill="white"/>
<path d="M30.96 12.24H3.56V15.4H30.96V12.24Z" fill="#C3E2FC"/>
<path d="M11.28 14.84L16.64 7.52002L21.88 10.68L26.84 15.32L10.88 15.64L11.28 14.84Z" fill="#95CE5A"/>
<path d="M17.08 6.71997C16.92 6.71997 16.76 6.71997 16.6 6.79997C15.88 6.95997 15.4 7.43997 15.04 7.91997L10.48 14.6H6.92001C6.60001 14.6 6.36001 14.76 6.20001 15C6.04001 15.24 6.04001 15.56 6.20001 15.8C6.36001 16.04 6.60001 16.2 6.92001 16.2H33.68C34.56 16.2 35.24 16.92 35.24 17.76V19.32C35.24 19.64 35.4 19.88 35.64 20.04C35.88 20.2 36.2 20.2 36.44 20.04C36.68 19.88 36.84 19.64 36.84 19.32V17.76C36.84 16.04 35.44 14.6 33.68 14.6H32.12C32.12 12.88 30.72 11.44 28.96 11.44H27.76C27.44 11.44 27.2 11.6 27.04 11.84C26.88 12.08 26.88 12.4 27.04 12.64C27.2 12.88 27.44 13.04 27.76 13.04H28.96C29.84 13.04 30.52 13.76 30.52 14.6H27.68L18.52 7.19997C18.12 6.87997 17.56 6.71997 17.08 6.71997ZM17.24 8.31997C17.32 8.31997 17.4 8.39997 17.56 8.47997L25.2 14.6H12.36L16.4 8.79997C16.56 8.55997 16.8 8.39997 16.96 8.39997C17.08 8.31997 17.16 8.31997 17.24 8.31997ZM5.36001 11.48C3.64001 11.48 2.20001 12.88 2.20001 14.64V36.68C2.20001 38.4 3.60001 39.84 5.36001 39.84H33.68C35.4 39.84 36.84 38.44 36.84 36.68V35.12C36.84 34.8 36.68 34.56 36.44 34.4C36.2 34.24 35.88 34.24 35.64 34.4C35.4 34.56 35.24 34.8 35.24 35.12V36.68C35.24 37.56 34.52 38.24 33.68 38.24H5.36001C4.48001 38.24 3.80001 37.52 3.80001 36.68V14.6C3.80001 13.72 4.52001 13.04 5.36001 13.04H9.28001C9.60001 13.04 9.84001 12.88 10 12.64C10.16 12.4 10.16 12.08 10 11.84C9.84001 11.6 9.60001 11.44 9.28001 11.44H5.36001V11.48ZM27.4 21.68C25.44 21.68 23.64 22.72 22.6 24.44C21.56 26.16 21.64 28.2 22.6 29.96C23.56 31.68 25.44 32.72 27.4 32.72H36.84C38.56 32.72 40 31.32 40 29.56V24.84C40 23.12 38.6 21.68 36.84 21.68H27.4ZM27.4 23.28H36.84C37.72 23.28 38.4 24 38.4 24.84V29.56C38.4 30.44 37.68 31.12 36.84 31.12H27.4C26 31.12 24.72 30.32 24 29.16C23.28 27.96 23.28 26.4 24 25.24C24.72 24.04 26 23.28 27.4 23.28ZM27.4 24.84C26.16 24.84 25.04 25.96 25.04 27.2C25.04 28.44 26.16 29.56 27.4 29.56C28.64 29.56 29.76 28.44 29.76 27.2C29.76 25.96 28.68 24.84 27.4 24.84ZM27.4 26.4C27.88 26.4 28.2 26.72 28.2 27.2C28.2 27.68 27.88 28 27.4 28C26.92 28 26.6 27.68 26.6 27.2C26.6 26.72 26.92 26.4 27.4 26.4Z" fill="#333E50"/>
<path d="M11.56 23.7201L11.4 30.8001L9.44 31.0401L13.12 35.9201L16.76 31.4001L14.56 30.9601L14.64 23.6001L11.56 23.7201Z" fill="#95CE5A"/>
<path d="M17.8 30.68C17.68 30.4 17.4 30.24 17.12 30.24H15.84C15.6 30.24 15.4 30.04 15.4 29.8V23.52C15.4 23.08 15.04 22.76 14.64 22.76H11.68C11.24 22.76 10.92 23.12 10.92 23.52V29.76C10.92 30 10.72 30.2 10.48 30.2H9.16003C8.88003 30.2 8.60003 30.36 8.48003 30.64C8.36003 30.92 8.36003 31.2 8.56003 31.44L12.56 36.64C12.72 36.84 12.92 36.96 13.16 36.96C13.4 36.96 13.64 36.84 13.76 36.64L17.76 31.44C17.92 31.24 17.96 30.92 17.8 30.68ZM14.8 31.6H15C15.16 31.6 15.32 31.68 15.4 31.84C15.48 32 15.48 32.16 15.36 32.32L13.48 34.76C13.32 35 12.92 35 12.76 34.76L10.88 32.32C10.8 32.2 10.8 32 10.88 31.84C10.96 31.68 11.12 31.6 11.28 31.6H11.52C11.96 31.6 12.28 31.24 12.28 30.84V24.6C12.28 24.36 12.48 24.16 12.72 24.16H13.56C13.8 24.16 14 24.36 14 24.6V30.84C14.04 31.24 14.36 31.6 14.8 31.6Z" fill="#333E50"/>
<path d="M14.8 20.52H11.56C11.2 20.52 10.88 20.84 10.88 21.2C10.88 21.56 11.2 21.88 11.56 21.88H14.8C15.16 21.88 15.48 21.56 15.48 21.2C15.48 20.84 15.16 20.52 14.8 20.52Z" fill="#333E50"/>
<path d="M14.8 18.48H11.56C11.2 18.48 10.88 18.8 10.88 19.16C10.88 19.52 11.2 19.84 11.56 19.84H14.8C15.16 19.84 15.48 19.52 15.48 19.16C15.48 18.8 15.16 18.48 14.8 18.48Z" fill="#333E50"/>
<path d="M28.72 7.75998C30.7303 7.75998 32.36 6.1303 32.36 4.11998C32.36 2.10966 30.7303 0.47998 28.72 0.47998C26.7097 0.47998 25.08 2.10966 25.08 4.11998C25.08 6.1303 26.7097 7.75998 28.72 7.75998Z" fill="#C3E2FC"/>
<path d="M28.64 -0.199951C26.28 -0.199951 24.32 1.72005 24.32 4.12005C24.32 6.52005 26.24 8.44005 28.64 8.44005C31 8.44005 32.96 6.52005 32.96 4.12005C32.96 1.72005 31.04 -0.199951 28.64 -0.199951ZM31.64 4.12005C31.64 5.76005 30.28 7.12005 28.64 7.12005C27 7.12005 25.64 5.76005 25.64 4.12005C25.64 2.48005 27 1.12005 28.64 1.12005C30.28 1.12005 31.64 2.48005 31.64 4.12005Z" fill="#333E50"/>
</g>
<defs>
<clipPath id="clip0">
<rect width="40" height="40" fill="white"/>
</clipPath>
</defs>
</svg>
