<svg width="20" height="20" viewBox="0 0 20 20" fill="none" xmlns="http://www.w3.org/2000/svg">
<path d="M10 2C5.584 2 2 5.584 2 10C2 14.416 5.584 18 10 18C14.416 18 18 14.416 18 10C18 5.584 14.416 2 10 2ZM10 16.864C6.224 16.864 3.136 13.776 3.136 10C3.136 6.224 6.224 3.136 10 3.136C13.776 3.136 16.864 6.208 16.864 10C16.864 13.776 13.776 16.864 10 16.864Z" fill="#ADB4BF"/>
<path d="M9.632 4.8479C9.312 4.8479 9.056 5.1039 9.056 5.4239V10.5599C9.072 10.8799 9.328 11.1359 9.648 11.1359H13.12C13.44 11.1359 13.696 10.8799 13.696 10.5599C13.696 10.2399 13.44 9.9839 13.12 9.9839H10.192V5.4079C10.192 5.0879 9.952 4.8479 9.632 4.8479Z" fill="#ADB4BF"/>
</svg>
