<svg width="26" height="26" viewBox="0 0 26 26" fill="none" xmlns="http://www.w3.org/2000/svg">
<g clip-path="url(#clip0)">
<path d="M10.065 13.5367C10.1571 13.6716 10.3061 13.7566 10.4691 13.7663C10.48 13.7669 10.4906 13.7672 10.5012 13.7672C10.6527 13.7672 10.7976 13.702 10.898 13.5871L14.8317 9.09112C15.0235 8.87181 15.0011 8.53856 14.7821 8.347C14.5628 8.15543 14.2295 8.17728 14.038 8.39659L10.5532 12.3793L9.53339 10.8813C9.36957 10.6405 9.04134 10.5782 8.80078 10.742C8.55992 10.9058 8.49764 11.2341 8.66146 11.4749L10.065 13.5367Z" fill="#ADB4BF"/>
<path d="M0.523349 10.9395L2.57625 10.9543V12.7713L0.995029 12.7725C0.703697 12.7725 0.467857 13.009 0.468152 13.3003C0.468152 13.5913 0.704287 13.8272 0.99562 13.8272C0.99562 13.8272 0.99562 13.8272 0.995915 13.8272L2.57625 13.8263V18.3288C2.57625 18.6201 2.81239 18.8563 3.10372 18.8563H5.9034C6.03534 19.9853 6.9973 20.8643 8.16085 20.8643C9.32441 20.8643 10.2861 19.9853 10.418 18.8563H17.4923H19.2719C19.5104 19.8554 20.411 20.601 21.4827 20.601C22.5539 20.601 23.4536 19.8557 23.6921 18.8563H25.4716C25.763 18.8563 25.9988 18.6201 25.9988 18.3288V13.1303C25.9991 13.1235 26 13.1167 26 13.1096C26 13.1034 25.9994 13.0978 25.9988 13.0916V12.9582C25.9988 12.8912 25.9864 12.8251 25.9616 12.7631L24.677 9.53599C24.5971 9.33557 24.4028 9.20392 24.1871 9.20392H24.0418H23.4471V7.69944C23.4471 7.44383 23.2638 7.22511 23.0123 7.18024L18.0204 6.29119V5.72742C18.0204 5.43609 17.7843 5.19995 17.4929 5.19995H3.10401C2.81268 5.19995 2.57655 5.43609 2.57655 5.72742V9.89964L0.531318 9.88488C0.530138 9.88488 0.528662 9.88488 0.527481 9.88488C0.23792 9.88488 0.00207974 10.1187 1.35574e-05 10.4085C-0.00205263 10.6995 0.232312 10.9375 0.523349 10.9395ZM8.16115 19.8094C7.48905 19.8094 6.94239 19.2624 6.94239 18.5906C6.94239 18.5263 6.94741 18.4631 6.95686 18.4017C6.96188 18.371 6.96807 18.3403 6.97516 18.3102C6.97663 18.3043 6.97782 18.2987 6.97929 18.2928C6.98726 18.2615 6.99641 18.2308 7.00645 18.2007C7.00792 18.1966 7.0091 18.1924 7.01087 18.1883C7.02239 18.1561 7.03478 18.1245 7.04866 18.0935C7.04895 18.0929 7.04925 18.0924 7.04925 18.0918C7.22753 17.6986 7.60889 17.4188 8.04751 17.3772C8.04957 17.3772 8.05223 17.3769 8.0543 17.3769C8.08942 17.3736 8.12484 17.3718 8.16085 17.3718C8.19657 17.3718 8.23199 17.3736 8.26711 17.3769C8.26918 17.3769 8.27184 17.3772 8.2739 17.3772C8.71252 17.4188 9.09388 17.6986 9.27217 18.0918C9.27246 18.0921 9.27276 18.0927 9.27305 18.0935C9.28692 18.1242 9.29932 18.1561 9.31083 18.1883C9.31231 18.1927 9.31378 18.1966 9.31526 18.2007C9.32559 18.2308 9.33445 18.2615 9.34242 18.2928C9.34389 18.2987 9.34507 18.3043 9.34655 18.3102C9.35363 18.3403 9.35983 18.3707 9.36485 18.4017C9.37429 18.4631 9.37961 18.5263 9.37961 18.5906C9.37961 19.2624 8.83295 19.8094 8.16115 19.8094ZM21.4833 19.5458C20.8112 19.5458 20.2646 18.9997 20.2646 18.3285C20.2646 17.6564 20.8112 17.1097 21.4833 17.1097C22.1542 17.1097 22.7006 17.6564 22.7006 18.3285C22.7003 18.9997 22.1542 19.5458 21.4833 19.5458ZM23.6935 17.8013C23.6918 17.7936 23.6894 17.786 23.6873 17.778C23.6841 17.7653 23.6809 17.7526 23.6773 17.7399C23.6714 17.7184 23.6652 17.6968 23.6587 17.6753C23.6552 17.6629 23.6513 17.6505 23.6472 17.6381C23.6401 17.6157 23.6324 17.5938 23.6248 17.5717C23.6206 17.5608 23.6171 17.5495 23.613 17.5389C23.6029 17.5121 23.5923 17.4855 23.5817 17.4592C23.5793 17.4536 23.5772 17.448 23.5749 17.4424C23.5613 17.4102 23.5471 17.3786 23.5321 17.3476C23.5282 17.34 23.5244 17.3326 23.5206 17.3246C23.5091 17.3013 23.4973 17.2786 23.4852 17.2556C23.4793 17.2449 23.4733 17.2346 23.4674 17.224C23.4565 17.2045 23.4453 17.185 23.4338 17.1655C23.4273 17.1546 23.4205 17.1434 23.4137 17.1325C23.4022 17.1139 23.3904 17.0956 23.3783 17.0773C23.3712 17.0666 23.3641 17.056 23.3571 17.0457C23.3441 17.0268 23.3308 17.0082 23.3172 16.9896C23.3107 16.9807 23.3042 16.9713 23.2974 16.9624C23.28 16.9394 23.262 16.9167 23.2437 16.8943C23.2408 16.8901 23.2375 16.886 23.2343 16.8822C23.2124 16.8559 23.19 16.8302 23.167 16.8045C23.1608 16.7977 23.1543 16.7913 23.1481 16.7845C23.131 16.7662 23.1141 16.7482 23.0967 16.7304C23.0879 16.7219 23.079 16.7133 23.0704 16.7048C23.0548 16.6894 23.0392 16.6741 23.0226 16.6593C23.0132 16.6505 23.0034 16.6416 22.9937 16.633C22.9775 16.6186 22.9612 16.6044 22.9447 16.5905C22.935 16.5823 22.9252 16.574 22.9152 16.5657C22.8975 16.5513 22.8795 16.5374 22.8615 16.5232C22.8523 16.5164 22.8435 16.5094 22.8343 16.5026C22.8101 16.4846 22.7856 16.4672 22.7608 16.4503C22.7576 16.448 22.7543 16.4456 22.7511 16.4435C22.7227 16.4246 22.6938 16.4061 22.6649 16.388C22.6563 16.3827 22.6472 16.3777 22.6386 16.3724C22.6179 16.36 22.597 16.3479 22.576 16.3361C22.5648 16.3302 22.5536 16.324 22.5424 16.3184C22.5232 16.3081 22.5037 16.298 22.4839 16.2883C22.4718 16.2824 22.46 16.2765 22.4479 16.2709C22.4285 16.2617 22.4084 16.2526 22.3886 16.244C22.3765 16.2387 22.3647 16.2337 22.3526 16.2287C22.331 16.2195 22.3095 16.2109 22.2877 16.203C22.277 16.1988 22.2664 16.1947 22.2558 16.1906C22.2254 16.1797 22.195 16.1693 22.1643 16.1596C22.1619 16.1587 22.1596 16.1581 22.1569 16.1572C22.1235 16.1469 22.0899 16.1375 22.0562 16.1286C22.0459 16.1259 22.0353 16.1236 22.0247 16.1212C22.001 16.1153 21.9774 16.1097 21.9535 16.1047C21.9408 16.102 21.9275 16.0994 21.9146 16.097C21.8927 16.0929 21.8706 16.0887 21.8484 16.0852C21.8349 16.0828 21.821 16.0808 21.8074 16.079C21.7853 16.0758 21.7628 16.0728 21.7404 16.0704C21.7268 16.069 21.7133 16.0672 21.6997 16.066C21.6752 16.0637 21.651 16.0619 21.6265 16.0604C21.6147 16.0598 21.6032 16.0586 21.5916 16.058C21.5553 16.0563 21.519 16.0554 21.4824 16.0554C21.4458 16.0554 21.4092 16.0563 21.3732 16.058C21.3614 16.0586 21.3499 16.0595 21.3384 16.0604C21.3139 16.0619 21.2894 16.0637 21.2652 16.066C21.2516 16.0672 21.238 16.069 21.2245 16.0704C21.202 16.0728 21.1799 16.0758 21.1575 16.079C21.1436 16.0808 21.13 16.0828 21.1164 16.0852C21.0943 16.0887 21.0721 16.0929 21.0503 16.0973C21.0373 16.0997 21.0243 16.1023 21.0113 16.105C20.9874 16.11 20.9638 16.1156 20.9402 16.1215C20.9296 16.1239 20.9192 16.1265 20.9086 16.1289C20.8747 16.1377 20.841 16.1472 20.8077 16.1575C20.8053 16.1581 20.8032 16.159 20.8009 16.1599C20.7702 16.1696 20.7395 16.18 20.7091 16.1912C20.6985 16.195 20.6878 16.1991 20.6775 16.2033C20.6557 16.2115 20.6338 16.2201 20.6123 16.2292C20.6002 16.2343 20.5884 16.2396 20.5766 16.2446C20.5565 16.2535 20.5367 16.2626 20.5169 16.2715C20.5048 16.2774 20.4927 16.283 20.4809 16.2889C20.4611 16.2983 20.4417 16.3086 20.4225 16.319C20.4113 16.3249 20.4 16.3308 20.3888 16.3367C20.3679 16.3485 20.3466 16.3609 20.326 16.373C20.3174 16.378 20.3085 16.3833 20.3 16.3883C20.2708 16.4061 20.2418 16.4246 20.2135 16.4438C20.2103 16.4459 20.2073 16.4486 20.2041 16.4506C20.1793 16.4677 20.1545 16.4852 20.1303 16.5032C20.1211 16.5097 20.1123 16.5167 20.1034 16.5235C20.0851 16.5377 20.0671 16.5516 20.0494 16.5663C20.0394 16.5743 20.0296 16.5826 20.0199 16.5908C20.0033 16.6047 19.9871 16.6189 19.9706 16.6336C19.9608 16.6422 19.9514 16.651 19.9416 16.6596C19.9254 16.6747 19.9095 16.69 19.8938 16.7054C19.885 16.7139 19.8761 16.7225 19.8679 16.731C19.8501 16.7487 19.8333 16.7668 19.8165 16.7851C19.8103 16.7918 19.8035 16.7986 19.7973 16.8054C19.7743 16.8308 19.7522 16.8565 19.73 16.883C19.7268 16.8869 19.7238 16.891 19.7206 16.8951C19.7023 16.9176 19.6843 16.9403 19.6668 16.9636C19.6601 16.9725 19.6536 16.9819 19.6468 16.9911C19.6335 17.0097 19.6199 17.028 19.6072 17.0469C19.6001 17.0575 19.5931 17.0681 19.5857 17.0787C19.5736 17.097 19.5618 17.1153 19.5503 17.1336C19.5435 17.1449 19.5367 17.1558 19.5302 17.1667C19.5187 17.1859 19.5075 17.2054 19.4968 17.2249C19.4909 17.2355 19.4847 17.2458 19.4791 17.2567C19.467 17.2792 19.4555 17.3022 19.444 17.3252C19.4399 17.3329 19.436 17.3409 19.4322 17.3485C19.4171 17.3795 19.403 17.4111 19.3894 17.443C19.3867 17.4492 19.3844 17.4554 19.3817 17.4616C19.3711 17.4873 19.3608 17.5132 19.351 17.5395C19.3469 17.5507 19.343 17.5619 19.3389 17.5732C19.3315 17.5947 19.3239 17.6165 19.3168 17.6384C19.3126 17.6511 19.3088 17.6638 19.305 17.6762C19.2988 17.6974 19.2926 17.7187 19.2867 17.7399C19.2831 17.7529 19.2799 17.7656 19.2766 17.7789C19.2746 17.7866 19.2722 17.7942 19.2704 17.8019H18.0192V10.2586H20.2501V13.1099C20.2501 13.4012 20.4862 13.6374 20.7776 13.6374H24.9439V17.8013H23.6935ZM24.6762 12.5824H21.3059V10.2586H22.9196H23.6924L24.6762 12.5824ZM22.3921 8.14102V9.20392H20.7785H18.0204V7.36236L22.3921 8.14102ZM3.63119 6.25459H16.9655V6.73277V9.73139V17.8013H10.2932C10.0033 17.0209 9.29667 16.4421 8.4451 16.3355C8.43654 16.3343 8.42798 16.3334 8.41913 16.3323C8.40053 16.3302 8.38164 16.3284 8.36275 16.3267C8.34415 16.3249 8.32497 16.3234 8.30608 16.3222C8.2925 16.3213 8.27863 16.3205 8.26475 16.3199C8.23051 16.3184 8.19598 16.3172 8.16144 16.3172C8.12661 16.3172 8.09237 16.3184 8.05784 16.3199C8.04397 16.3205 8.03039 16.3213 8.01652 16.3222C7.99763 16.3234 7.97873 16.3249 7.95984 16.3267C7.94095 16.3281 7.92206 16.3302 7.90317 16.3323C7.89432 16.3331 7.88576 16.3343 7.8772 16.3355C7.02563 16.4421 6.319 17.0212 6.02914 17.8013H3.63148V13.8251L6.78359 13.8227C7.07493 13.8224 7.31077 13.5863 7.31047 13.295C7.31047 13.0036 7.07434 12.7678 6.783 12.7678C6.783 12.7678 6.783 12.7678 6.78271 12.7678L3.63148 12.7702V10.962L5.67818 10.9767C5.67937 10.9767 5.68084 10.9767 5.68202 10.9767C5.97158 10.9767 6.20742 10.7429 6.20949 10.4531C6.21156 10.1617 5.97719 9.92384 5.68586 9.92177L3.63148 9.90702V6.25459H3.63119Z" fill="#ADB4BF"/>
</g>
<defs>
<clipPath id="clip0">
<rect width="26" height="26" fill="white"/>
</clipPath>
</defs>
</svg>
