<svg width="40" height="40" viewBox="0 0 40 40" fill="none" xmlns="http://www.w3.org/2000/svg">
<path d="M8.03999 25.96H0.959991V35.64H8.03999V25.96Z" fill="#95CE5A"/>
<path d="M4.60001 29.68C4.99765 29.68 5.32001 29.3576 5.32001 28.96C5.32001 28.5623 4.99765 28.24 4.60001 28.24C4.20236 28.24 3.88 28.5623 3.88 28.96C3.88 29.3576 4.20236 29.68 4.60001 29.68Z" fill="white"/>
<path d="M31.6 34.2C31.52 33.4 31.04 32.76 30.32 32.44C28.36 31.6 25.08 32.32 23.84 32.64C23.44 31.36 21.44 30.44 20.56 30.12C18.64 29.44 15.28 26.72 15.28 26.72C14 25.4 11.96 25.04 9.16 25.72C9.16 25.52 9.08 25.36 8.96 25.24C8.8 25.08 8.64 25.04 8.44 25.04H0.8C0.56 25.04 0.4 25.12 0.28 25.24C0.12 25.36 0 25.56 0 25.8V35.48C0 35.88 0.28 36.2 0.68 36.24H8.4C8.84 36.24 9.16 35.92 9.16 35.48V35.16C11.64 36.08 14.56 37.56 15.56 38.08C15.72 38.16 15.84 38.2 15.88 38.24C16.8 38.76 17.76 39.12 18.8 39.28C19.36 39.4 19.92 39.44 20.44 39.44C21.8 39.44 22.96 39.16 23.84 38.88C24.4 38.72 25 38.56 25.6 38.36C27.48 37.84 29.4 37.32 30.64 36.4C31.32 35.96 31.68 35.12 31.6 34.2ZM18.6 32.84C17.48 31.92 16.04 31.36 15.72 31.28C15.36 31.16 14.92 31.4 14.76 31.76C14.64 32.12 14.84 32.56 15.24 32.72C15.24 32.72 16.64 33.16 17.6 34C19.4 35.48 21.56 35.64 23.32 34.44C24.52 34.04 28.12 33.16 29.76 33.88C30 34 30.08 34.24 30.12 34.44C30.12 34.68 30.04 35 29.76 35.2C28.76 35.92 27 36.4 25.32 36.88C24.64 37.08 23.96 37.24 23.36 37.44C21.6 38 19 38.36 16.6 36.92C16.56 36.92 16.44 36.84 16.24 36.72C15.16 36.16 11.88 34.44 9.2 33.56V27.36C11.6 26.68 13.32 26.88 14.28 27.88L14.36 27.96C15.72 29.08 18.32 31 20.08 31.6C20.96 31.96 22.28 32.68 22.4 33.12C22.4 33.16 22.4 33.16 22.4 33.2C21.24 34 19.84 33.88 18.6 32.84ZM7.64 26.6V34.72H1.52V26.6H7.64Z" fill="#333E50"/>
<path d="M4.91998 27.4001C4.03998 27.2401 3.19998 27.8401 3.03998 28.7201C2.87998 29.6001 3.47998 30.4401 4.35998 30.6001C5.23998 30.7601 6.07998 30.1601 6.23998 29.2801C6.35998 28.4001 5.75998 27.5601 4.91998 27.4001ZM4.55998 29.4801C4.27998 29.4401 4.11998 29.1601 4.15998 28.8801C4.19998 28.6001 4.47998 28.4001 4.75998 28.4801C5.03998 28.5201 5.23998 28.8001 5.15998 29.0801C5.03998 29.3201 4.83998 29.5201 4.55998 29.4801Z" fill="#333E50"/>
<path fill-rule="evenodd" clip-rule="evenodd" d="M22.8 8.15332C20.988 8.15332 19.5133 9.62794 19.5133 11.44C19.5133 13.252 20.988 14.7267 22.8 14.7267C24.6121 14.7267 26.0867 13.252 26.0867 11.44C26.0867 9.62794 24.6121 8.15332 22.8 8.15332ZM20.9267 11.44C20.9267 10.452 21.7321 9.64665 22.72 9.64665C23.708 9.64665 24.5133 10.452 24.5133 11.44C24.5133 12.4279 23.708 13.2333 22.72 13.2333C21.7698 13.2333 20.9267 12.4258 20.9267 11.44ZM31.7579 9.56211C31.4612 9.26548 30.9901 9.24697 30.7172 9.56711L20.9222 19.3621C20.6253 19.659 20.607 20.1307 20.9279 20.4035C20.9916 20.4646 21.0835 20.513 21.1715 20.546C21.2649 20.581 21.375 20.6066 21.48 20.6066C21.6576 20.6066 21.8053 20.5285 21.9282 20.4635C21.9512 20.4514 21.9733 20.4397 21.9946 20.429L22.0187 20.4169L31.8095 10.6261L31.8187 10.6124C32.0165 10.3157 32.0188 9.87419 31.7681 9.57327L31.7632 9.56746L31.7579 9.56211ZM29.88 15.2333C28.068 15.2333 26.5933 16.7079 26.5933 18.52C26.5933 20.332 28.068 21.8067 29.88 21.8067C31.692 21.8067 33.1667 20.332 33.1667 18.52C33.1667 16.7093 31.7334 15.2333 29.88 15.2333ZM28.0867 18.6C28.0867 17.612 28.892 16.8067 29.88 16.8067C30.868 16.8067 31.6733 17.612 31.6733 18.6H31.6732L31.6735 18.6064C31.7096 19.5458 30.8717 20.3933 29.88 20.3933C28.892 20.3933 28.0867 19.5879 28.0867 18.6Z" fill="#333E50"/>
<path d="M26.32 28.6401C18.8 28.6401 12.64 22.5201 12.64 14.9601C12.64 7.40007 18.8 1.32007 26.32 1.32007C33.84 1.32007 40 7.44007 40 15.0001C40 22.5601 33.88 28.6401 26.32 28.6401ZM26.32 2.92007C19.68 2.92007 14.24 8.32007 14.24 15.0001C14.24 21.6401 19.64 27.0801 26.32 27.0801C33 27.0801 38.4 21.6401 38.4 15.0001C38.4 8.32007 33 2.92007 26.32 2.92007Z" fill="#333E50"/>
</svg>
